<?xml version="1.0" standalone="no"?>
<!DOCTYPE svg PUBLIC "-//W3C//DTD SVG 20010904//EN"
 "http://www.w3.org/TR/2001/REC-SVG-20010904/DTD/svg10.dtd">
<svg version="1.0" xmlns="http://www.w3.org/2000/svg"
 width="620.000000pt" height="620.000000pt" viewBox="0 0 620.000000 620.000000"
 preserveAspectRatio="xMidYMid meet">
<metadata>
Created by potrace 1.11, written by Peter Selinger 2001-2013
</metadata>
<g transform="translate(0.000000,620.000000) scale(0.100000,-0.100000)"
fill="#000000" stroke="none">
<path d="M6028 5925 c-19 -6 -69 -31 -109 -55 -41 -23 -89 -51 -106 -61 -50
-29 -84 -49 -253 -146 -342 -198 -442 -256 -865 -501 -242 -140 -454 -263
-472 -273 -17 -10 -50 -29 -72 -43 -22 -15 -43 -26 -45 -26 -3 0 -38 -20 -78
-43 -68 -41 -359 -210 -438 -255 -30 -17 -660 -381 -1205 -697 -88 -51 -259
-150 -380 -220 -121 -70 -256 -148 -300 -174 -44 -26 -161 -94 -261 -151 -200
-115 -224 -138 -219 -207 4 -53 27 -86 73 -107 20 -9 352 -121 737 -249 l700
-233 241 -720 c203 -607 246 -727 278 -772 55 -77 118 -98 185 -63 12 7 189
235 393 507 204 272 376 493 382 490 6 -2 250 -106 541 -232 369 -159 541
-228 566 -228 59 0 116 50 124 106 1 13 5 39 9 58 47 264 57 322 61 346 2 16
11 70 20 119 9 50 18 101 20 115 3 14 7 39 10 55 11 62 65 361 70 390 3 17 12
71 20 120 9 50 18 101 21 115 14 76 76 429 79 450 2 20 15 90 20 110 1 3 5 28
10 55 4 28 9 59 11 70 2 11 7 34 10 50 3 17 19 107 35 200 17 94 32 181 34
195 2 14 4 25 5 25 1 0 3 9 4 20 2 11 6 36 9 55 39 219 99 560 102 580 2 14
10 61 19 105 8 44 17 96 20 115 3 19 8 49 11 65 3 17 14 80 25 140 11 61 27
148 35 195 9 47 18 98 20 115 3 16 12 68 21 115 8 47 17 97 19 112 2 14 9 36
15 48 17 31 14 113 -4 152 -27 56 -90 83 -148 63z m-1911 -1930 c-702 -701
-1279 -1275 -1284 -1275 -8 0 -1113 367 -1162 385 -16 6 -5 14 89 67 25 14 99
57 165 95 66 39 181 105 255 148 74 43 216 125 315 182 305 178 733 425 795
460 19 11 60 35 90 53 30 18 71 42 90 52 19 11 103 59 185 107 83 48 274 159
425 246 151 87 307 177 345 200 39 23 90 53 115 67 80 45 313 180 379 220 34
21 65 38 67 38 4 0 49 27 279 163 61 36 114 66 118 66 5 1 -565 -573 -1266
-1274z m1707 1188 c-3 -16 -9 -53 -14 -83 -5 -30 -12 -71 -15 -90 -3 -19 -17
-96 -30 -170 -28 -155 -27 -147 -60 -340 -26 -146 -48 -272 -85 -475 -11 -60
-22 -127 -26 -149 -3 -21 -8 -48 -10 -60 -5 -28 -22 -123 -28 -161 -3 -16 -12
-70 -21 -120 -9 -49 -27 -151 -40 -225 -60 -346 -86 -491 -100 -565 -19 -105
-24 -133 -30 -175 -3 -19 -10 -55 -15 -80 -9 -42 -21 -114 -35 -200 -3 -19
-10 -57 -15 -85 -12 -65 -15 -82 -46 -265 -14 -85 -29 -158 -33 -162 -3 -4
-324 130 -713 296 l-707 303 234 329 c129 181 432 605 672 941 241 337 591
827 777 1088 187 261 340 475 342 475 1 0 1 -12 -2 -27z m-801 -660 c-26 -38
-51 -72 -56 -78 -4 -5 -46 -64 -93 -130 -47 -66 -99 -138 -114 -160 -16 -22
-69 -96 -117 -164 -48 -68 -105 -147 -125 -175 -20 -28 -54 -76 -76 -106 -68
-97 -673 -943 -690 -966 -9 -12 -57 -79 -106 -149 -50 -70 -101 -134 -115
-143 -33 -21 -59 -49 -66 -73 -4 -11 -42 -194 -85 -407 -43 -213 -79 -385 -79
-382 -1 3 -71 212 -155 465 l-154 460 1036 1038 c570 570 1038 1037 1040 1037
2 0 -19 -30 -45 -67z m-1201 -2429 c73 -31 135 -58 137 -60 2 -2 -91 -130
-208 -285 -116 -156 -211 -278 -211 -272 0 9 12 74 25 133 3 14 7 36 10 49 2
14 9 47 15 75 6 28 12 60 14 71 40 207 71 345 77 345 5 0 69 -25 141 -56z"/>
<path d="M73 936 c-17 -8 -40 -27 -49 -42 -23 -34 -23 -103 -1 -137 14 -22
185 -147 201 -147 2 0 45 -24 96 -54 105 -63 136 -72 183 -56 104 34 117 181
21 230 -61 31 -202 115 -273 163 -81 54 -128 66 -178 43z"/>
<path d="M2309 756 c-82 -41 -150 -82 -161 -97 -48 -64 -19 -160 57 -189 41
-16 86 -5 186 45 173 87 204 116 202 186 -1 44 -21 81 -57 104 -50 33 -77 27
-227 -49z"/>
<path d="M980 532 c-30 -14 -57 -37 -68 -59 -32 -59 3 -154 63 -172 113 -36
398 -58 478 -38 77 19 112 110 72 187 -24 47 -64 59 -202 61 -66 0 -140 5
-164 10 -70 13 -163 19 -179 11z"/>
</g>
</svg>
