<?xml version="1.0" standalone="no"?>
<!DOCTYPE svg PUBLIC "-//W3C//DTD SVG 20010904//EN"
 "http://www.w3.org/TR/2001/REC-SVG-20010904/DTD/svg10.dtd">
<svg version="1.0" xmlns="http://www.w3.org/2000/svg"
 width="139.000000pt" height="139.000000pt" viewBox="0 0 139.000000 139.000000"
 preserveAspectRatio="xMidYMid meet">
<metadata>
Created by potrace 1.11, written by Peter Selinger 2001-2013
</metadata>
<g transform="translate(0.000000,139.000000) scale(0.100000,-0.100000)"
fill="#000000" stroke="none">
<path d="M625 1383 c-189 -30 -318 -92 -430 -209 -76 -80 -119 -151 -158 -261
-26 -75 -30 -103 -31 -193 -1 -127 7 -181 40 -268 127 -338 489 -516 844 -416
99 28 219 103 301 188 42 43 111 150 138 214 56 134 63 329 17 466 -78 232
-247 392 -478 456 -67 18 -196 30 -243 23z m196 -298 c210 -75 325 -292 264
-502 -76 -263 -385 -379 -617 -231 -77 49 -145 138 -172 226 l-8 23 154 -3
153 -3 1 -65 c2 -83 1 -77 24 -100 16 -16 33 -20 89 -20 80 0 78 -3 76 113
l-2 77 72 0 c58 0 75 4 93 20 26 24 24 17 26 103 l2 67 -96 0 -95 0 -1 70 c0
61 -3 74 -25 95 -25 24 -42 28 -119 26 l-46 -1 1 -92 0 -93 -153 -3 -154 -3 7
23 c17 56 72 141 117 184 107 100 274 136 409 89z"/>
</g>
</svg>
