<svg xmlns="http://www.w3.org/2000/svg" viewBox="0 0 392.13 256.29"><title>clicked event illustration cut off</title><rect width="392.13" height="286.5" style="fill:#fff"/><rect x="16.93" y="13.34" width="226.98" height="152.01" style="fill:#e5e5e5"/><rect x="243.91" y="13.34" width="133.53" height="152.01" style="fill:#f0efef"/><rect x="296" y="179.68" width="81.45" height="72.1" style="fill:#e5e5e5"/><rect x="110.38" y="179.68" width="81.45" height="72.1" style="fill:#e5e5e5"/><rect x="16.93" y="179.68" width="81.45" height="72.1" style="fill:#e5e5e5"/><rect x="16.93" y="251.78" width="81.45" height="20.38" style="fill:#f0efef"/><rect x="110.38" y="251.78" width="81.45" height="20.38" style="fill:#f0efef"/><rect x="203.19" y="251.78" width="81.45" height="20.38" style="fill:#f0efef"/><rect x="296" y="251.78" width="81.45" height="20.38" style="fill:#f0efef"/><rect x="203.19" y="179.68" width="81.45" height="72.1" style="fill:#e5e5e5"/><rect x="259.53" y="145.88" width="102.3" height="11.56" rx="5.78" style="fill:#e5e5e5"/><rect x="350.79" y="162.12" width="3.73" height="16.65" transform="translate(-17.23 299.29) rotate(-45)" style="fill:#b7b7b7"/><polygon points="334.39 152.18 339.6 171.72 346.77 164.55 353.94 157.39 334.39 152.18" style="fill:#b7b7b7"/><line x1="346.39" y1="148.46" x2="354.05" y2="136.92" style="fill:none;stroke:#f8963c;stroke-miterlimit:10;stroke-width:1.5px"/><line x1="339.76" y1="144.45" x2="341.48" y2="134.13" style="fill:none;stroke:#f8963c;stroke-miterlimit:10;stroke-width:1.5px"/><line x1="317.13" y1="162.49" x2="327.26" y2="159.85" style="fill:none;stroke:#f8963c;stroke-miterlimit:10;stroke-width:1.5px"/><line x1="326.07" y1="151.66" x2="312.33" y2="147.72" style="fill:none;stroke:#f8963c;stroke-miterlimit:10;stroke-width:1.5px"/><line x1="330.52" y1="146.72" x2="317.59" y2="131.93" style="fill:none;stroke:#f8963c;stroke-miterlimit:10;stroke-width:1.5px"/></svg>