<svg xmlns="http://www.w3.org/2000/svg" viewBox="0 0 325.58 325.58"><title>content_box_collaborate</title><path d="M176.35,169.57a88.29,88.29,0,0,0-60.44-83.64,47.48,47.48,0,1,0-55.47,0A88.29,88.29,0,0,0,0,169.57v6.78H176.35ZM54.26,47.48A33.92,33.92,0,1,1,88.18,81.39,34,34,0,0,1,54.26,47.48ZM13.87,162.79a74.61,74.61,0,0,1,148.61,0Z" style="fill:#f8963e"/><path d="M265.14,235.16a47.49,47.49,0,1,0-55.47,0,88.28,88.28,0,0,0-60.45,83.64v6.78H325.58V318.8A88.29,88.29,0,0,0,265.14,235.16ZM203.49,196.7a33.92,33.92,0,1,1,33.91,33.92A33.95,33.95,0,0,1,203.49,196.7ZM163.09,312a74.62,74.62,0,0,1,148.62,0Z" style="fill:#f8963e"/><polygon points="244.18 122.09 244.18 40.7 185.95 40.7 208.28 18.36 198.69 8.77 159.98 47.48 198.69 86.19 208.28 76.6 185.95 54.26 230.62 54.26 230.62 122.09 244.18 122.09" style="fill:#f8963e"/><polygon points="76.6 248.98 98.94 271.31 54.26 271.31 54.26 203.49 40.7 203.49 40.7 284.88 98.94 284.88 76.6 307.22 86.19 316.81 124.9 278.1 86.19 239.39 76.6 248.98" style="fill:#f8963e"/></svg>