<svg xmlns="http://www.w3.org/2000/svg" viewBox="0 0 316.81 316.81"><title>content_box_measure</title><path d="M165,0H151.8V13.2H0V224.41H115.4L79.2,308.85v8H92.4v-5.25l37.35-87.15H151.8v92.4H165v-92.4h22.06l37.35,87.15v5.25h13.2v-8l-36.2-84.44h115.4V13.2H165ZM52.8,211.21V198H92.4v13.21Zm250.81,0h-198V184.8h-66v26.41H13.2V26.4H303.61Z" style="fill:#f8963e"/><polygon points="112.2 101.73 158.4 147.94 248.87 57.47 239.54 48.13 158.4 129.27 112.2 83.07 48.13 147.14 57.47 156.47 112.2 101.73" style="fill:#f8963e"/><rect x="198" y="145.2" width="13.2" height="39.6" style="fill:#f8963e"/><rect x="231.01" y="112.2" width="13.2" height="72.6" style="fill:#f8963e"/><rect x="264.01" y="79.2" width="13.2" height="105.6" style="fill:#f8963e"/></svg>