<?xml version="1.0" encoding="utf-8"?>
<!-- Generator: Adobe Illustrator 23.0.1, SVG Export Plug-In . SVG Version: 6.00 Build 0)  -->
<svg version="1.1" id="Layer_1" xmlns="http://www.w3.org/2000/svg" xmlns:xlink="http://www.w3.org/1999/xlink" x="0px" y="0px"
	 viewBox="0 0 90.2 90.2" style="enable-background:new 0 0 90.2 90.2;" xml:space="preserve">
<style type="text/css">
	.st0{fill:#3D90E3;}
</style>
<path class="st0" d="M34,36.1l8.2,6.6c0.3,0.2,0.6,0.3,0.9,0.3c0.4,0,0.8-0.2,1.1-0.5l12-14.1c0.5-0.6,0.5-1.6-0.2-2.1
	c-0.6-0.5-1.6-0.5-2.1,0.2l-11.1,13l-7.1-5.6c-0.6-0.5-1.6-0.4-2.1,0.2C33.3,34.6,33.4,35.6,34,36.1z M45.1,55.2
	c12.1,0,21.9-9.8,21.9-21.9c0-9-5.4-17-13.7-20.3c-2.6-1-5.3-1.6-8.2-1.6c-11,0-20.4,8.2-21.7,19.2c-0.1,0.9-0.2,1.8-0.2,2.7
	C23.2,45.4,33,55.2,45.1,55.2z M26.3,30.9c1.2-9.4,9.2-16.6,18.8-16.6c2.4,0,4.8,0.5,7.1,1.4c7.2,2.9,11.9,9.8,11.9,17.6
	c0,10.4-8.5,18.9-18.9,18.9s-18.9-8.5-18.9-18.9C26.2,32.5,26.2,31.7,26.3,30.9z M87.2,58H3c-1.7,0-3,1.3-3,3v14.7c0,1.7,1.3,3,3,3
	h84.2c1.7,0,3-1.3,3-3V61C90.2,59.3,88.8,58,87.2,58z M87.2,75.6H3V61h84.2V75.6z M50.3,70.6c1.3,0,2.3-1,2.3-2.3s-1-2.3-2.3-2.3
	s-2.3,1-2.3,2.3S49.1,70.6,50.3,70.6z M60.8,70.6c1.3,0,2.3-1,2.3-2.3s-1-2.3-2.3-2.3s-2.3,1-2.3,2.3S59.5,70.6,60.8,70.6z
	 M39.9,70.6c1.3,0,2.3-1,2.3-2.3s-1-2.3-2.3-2.3s-2.3,1-2.3,2.3S38.6,70.6,39.9,70.6z M29.4,70.6c1.3,0,2.3-1,2.3-2.3
	s-1-2.3-2.3-2.3s-2.3,1-2.3,2.3S28.2,70.6,29.4,70.6z M71.2,70.6c1.3,0,2.3-1,2.3-2.3s-1-2.3-2.3-2.3s-2.3,1-2.3,2.3
	S69.9,70.6,71.2,70.6z M19,70.6c1.3,0,2.3-1,2.3-2.3s-1-2.3-2.3-2.3s-2.3,1-2.3,2.3C16.7,69.6,17.7,70.6,19,70.6z M81.7,70.6
	c1.3,0,2.3-1,2.3-2.3s-1-2.3-2.3-2.3s-2.3,1-2.3,2.3S80.4,70.6,81.7,70.6z M8.5,70.6c1.3,0,2.3-1,2.3-2.3s-1-2.3-2.3-2.3
	s-2.3,1-2.3,2.3C6.2,69.6,7.3,70.6,8.5,70.6z"/>
<text transform="matrix(1 0 0 1 -4.9 110.05)" style="font-family:'HelveticaNeue-Bold'; font-size:5px;">Created by Deepz</text>
<text transform="matrix(1 0 0 1 -4.9 115.05)" style="font-family:'HelveticaNeue-Bold'; font-size:5px;">from the Noun Project</text>
</svg>
