<svg xmlns="http://www.w3.org/2000/svg" viewBox="0 0 85.76 85.25"><title>EDC Logo - no words no padding</title><polyline points="85.76 74.67 85.76 70.81 85.76 45.59 71.31 45.59 71.31 70.81 46.1 70.81 46.1 85.25 71.31 85.25 74.84 85.25" style="fill:#425cc7"/><polyline points="11.09 85.25 0 85.25 0 74.67" style="fill:#999b9e"/><polyline points="11.09 85.25 14.45 85.25 39.66 85.25 39.66 70.81 14.45 70.81 14.45 45.59 0 45.59 0 70.81 0 74.67" style="fill:#f5a800"/><polyline points="0 11.66 0 14.45 0 39.66 14.45 39.66 14.45 14.45 39.66 14.45 39.66 0 14.45 0 11.09 0" style="fill:#425cc7"/><polyline points="74.84 0 85.76 0 85.76 11.66" style="fill:#999b9e"/><polyline points="74.84 0 71.31 0 46.1 0 46.1 14.45 71.31 14.45 71.31 39.66 85.76 39.66 85.76 14.45 85.76 11.66" style="fill:#f5a800"/><path d="M21.85,22.67V64.13H63.32V22.67Zm37.6,37.74H25.58V32.08H59.45Z" style="fill:#425cc7"/><rect x="39.33" y="33.53" width="7.13" height="7.13" style="fill:#425cc7"/><rect x="49.83" y="33.53" width="7.13" height="7.13" style="fill:#425cc7"/><rect x="39.33" y="42.53" width="7.13" height="7.13" style="fill:#425cc7"/><rect x="49.83" y="42.53" width="7.13" height="7.13" style="fill:#425cc7"/><rect x="39.33" y="51.52" width="7.13" height="7.13" style="fill:#425cc7"/><rect x="28.51" y="42.53" width="7.13" height="7.13" style="fill:#425cc7"/><rect x="28.51" y="51.52" width="7.13" height="7.13" style="fill:#425cc7"/><rect x="49.83" y="51.52" width="7.13" height="7.13" style="fill:#425cc7"/></svg>