<svg xmlns="http://www.w3.org/2000/svg" xmlns:xlink="http://www.w3.org/1999/xlink" viewBox="0 0 642.95 312.73"><defs><clipPath id="a"><rect x="398.58" y="184.56" width="88.11" height="83.47" style="fill:none"/></clipPath></defs><title>everywhere</title><path d="M310.25,83.81a41.53,41.53,0,0,1-12,3.3,21,21,0,0,0,9.22-11.6,41.82,41.82,0,0,1-13.31,5.09,21,21,0,0,0-35.73,19.13,59.53,59.53,0,0,1-43.22-21.91,21,21,0,0,0,6.49,28,21,21,0,0,1-9.5-2.62v.27A21,21,0,0,0,229,124a21,21,0,0,1-5.52.74,20.51,20.51,0,0,1-4-.38,21,21,0,0,0,19.59,14.56,42,42,0,0,1-26,9,41.31,41.31,0,0,1-5-.3A59.26,59.26,0,0,0,240.2,157c38.57,0,59.65-31.95,59.65-59.66,0-.91,0-1.82-.06-2.72A42.16,42.16,0,0,0,310.25,83.81Z" style="fill:#858585"/><path d="M452.5,137.36a8.88,8.88,0,0,1-4.2,2.33c-4.36,1.14-9.51,0-13.57-1.83-12.93-5.69-10.08-20.1-4.41-30,1.71-3,3.39-6,5.08-9,1.33-2.38,4.21-6.39,3.08-9.3s-4.35-3.07-6.42-.5a47.29,47.29,0,0,0-5.07,8.9c-1.5,3.14-9,19.62-9,19.62-1.38,2.68-3.72,6.54-6.25,8.67a6.55,6.55,0,0,1-7.61.41,4.49,4.49,0,0,1-1.72-4.86c1.56-9,15.14-29.8,5.77-31.26-3.59-.57-4.56,3.43-5.67,6-1.83,4.21-3.22,8.6-5.18,12.76a73.63,73.63,0,0,0-5.16,14.9c-.94,4.11-2.16,9.34-6.84,10.59-12.79,3.42-16.68-5-16.68-5-2.09-6.64-.11-12.62,1.9-19,1.56-4.94,2.48-10,4.45-14.84,3.52-8.56,7-26.44,19.67-25.29a25.22,25.22,0,0,1,9.64,3.55c2.54,1.48,4.47,2.27,7.42.67s4.19-4.43,7.62-5.42c3.67-1,6.08.51,8.82,2.72,3.85,3.09,4.27,1.7,7.44.88a21.21,21.21,0,0,1,8.58-.49C459,75,449.58,94,446,101.57c-2.31,5-13.31,24.89-3.56,27.56,2.94.81,6.73.44,9.18,2.55S453.9,135.85,452.5,137.36Z" style="fill:#858585"/><path d="M209.74,235.63a7.9,7.9,0,0,0-10-5l-8.38,2.82-5.68-16.88,8.16-2.75a7.89,7.89,0,1,0-5-15l-8.16,2.75-2.75-8.17a7.9,7.9,0,0,0-10-5h0a7.91,7.91,0,0,0-5,10l2.75,8.16-17.24,5.8-2.71-8.07a7.9,7.9,0,0,0-15,5l2.72,8.07-8.22,2.77a7.89,7.89,0,0,0-5,10h0a7.9,7.9,0,0,0,10,5l8.22-2.76,5.68,16.87-8,2.69a7.9,7.9,0,0,0,5,15l8-2.69,2.92,8.66a7.89,7.89,0,1,0,15-5l-2.91-8.66,17.23-5.8,2.88,8.56a7.9,7.9,0,1,0,15-5l-2.89-8.57,8.39-2.82A7.9,7.9,0,0,0,209.74,235.63Zm-50.58,8.69-5.68-16.87,17.23-5.8,5.68,16.87Z" style="fill:#858585"/><path d="M349.26,239.43a4.94,4.94,0,0,0-3.42-2.66,20.39,20.39,0,0,0-1.33-3.8c.19-.38.57-.57.57-.75,2.28-2.66.76-6.65-3-7.6a17.4,17.4,0,0,0-5.7-3.8,25.44,25.44,0,0,1-2.28-1.14c-.38-1.9-.57-6.08-1.14-9.12a9.83,9.83,0,0,0-3.23-5.88,14.39,14.39,0,0,0-2.65-4c5.31-8,6.64-15.95,2.84-20.13-1.7-1.9-4.17-2.66-7.21-2.66-4.37,0-9.5,1.71-14.82,4.94,0,0-3.41-2.85-3.6-2.85-14.82-11.59-56.79,39.88-42,51.09l3.8,2.84a13.38,13.38,0,0,0,8,17.1,14.17,14.17,0,0,0,4.94.76s11.2,20.51,34.94,20.51c27.35,0,34.38-26.78,34.38-27C348.12,245.51,350.4,242.09,349.26,239.43Zm-86-11.77c-2.85-5.13,2.28-15.39,6.08-21.46,9.12-14.63,24.5-26.21,31.53-24.5l1.9-.76s5.12,4.37,5.31,4.37c3.61-2.09,8.17-4.37,12.35-4.75a32.17,32.17,0,0,0-9.5,4.18s-8.92,6.07-14.24,11.39C293.8,199,282,213.22,282,213a51.57,51.57,0,0,1,7-10.25c1.9-2.47,4-4.75,6.08-7,.95-.95,1.9-1.9,3-2.85.76-.57,1.33-1.33,2.09-1.9.38-.19.57-.57.95-.76h0l-6.84-5.69.38,2.46,4.94,4.37s-4.37,3-6.65,4.94c-8.93,7.6-17.47,19.18-20.7,30.39h.19a15.49,15.49,0,0,0-4.56,4.18C267.4,231.08,263.79,228.61,263.22,227.66Zm14.63,21.08c-5.32,0-9.5-4.56-9.5-10.07s4.37-10.06,9.5-10.06a12.28,12.28,0,0,1,3.8.76s2.08.95,2.65,5.88h0c.57-1.52.95-2.85.95-2.85a19,19,0,0,1,.95,6.46h0a12.66,12.66,0,0,0,1.14-2.09C288.48,243.23,283.92,248.74,277.85,248.74Zm11.77-35.52h0a38.12,38.12,0,0,1,13.11-13.1,10.87,10.87,0,0,0-2.66.19c1.71-1.33,4.75-2.28,6.83-2.85a6.89,6.89,0,0,0-2.84-.57h-.38c1.9-1.14,5.69-1.71,8.92-1.14a3.75,3.75,0,0,0-2.09-1.14h-.19a11.73,11.73,0,0,1,6.27.76,4.57,4.57,0,0,0-1.14-1.52l-.19-.19a16.7,16.7,0,0,1,5.32,2.28,5.77,5.77,0,0,0-.95-1.33,8.23,8.23,0,0,1,4.94,3.8h0v.19h0c-3.61-2.66-13.87-1.9-24.12,4.75A42.28,42.28,0,0,0,289.62,213.22Zm55.84,31a24.43,24.43,0,0,1-8.93,13.1c-9.3,7.41-21.65,6.65-26.4,2.47a15.44,15.44,0,0,1-3.61-5.69s-.19,1.89-.38,2.65a14.16,14.16,0,0,1-1.7-7s-.95,1.9-1.52,2.85a16.07,16.07,0,0,1-.76-7.22L301,247a15.94,15.94,0,0,1,.76-7.22,15.74,15.74,0,0,1,4.55-6.46,15.28,15.28,0,0,1-4.17-2.46h1.52s-4-2.85-4.75-7.22a8.4,8.4,0,0,0,1.71,1.52,15.92,15.92,0,0,1-.19-6.27h0a9.33,9.33,0,0,1,9.11-8c4.75,0,8,.95,12-2.65a5,5,0,0,1,2.66-1.71,4.14,4.14,0,0,1,1.14-.19,3.67,3.67,0,0,1,1.9.57c2.09,1.33,2.65,4.74,2.84,7.21.95,9.12.57,7.6,4.18,9.5,1.71,1,3.8,1.71,6.08,4.18h0c1.9,0,2.85,1.52,2.09,2.66-6.46,7.59-15.38,11.2-25.26,11.58h-1.33c-4,.19-5.32,5.32-2.85,8.36,1.52,1.9,4.75,2.66,7.22,2.66h0c10.82.19,21.84-7.41,23.74-11.78l.19-.38c-.38.57-11,10.45-23.93,10.07a11,11,0,0,1-2.66-.38,4.36,4.36,0,0,1-3.61-2.85,23.72,23.72,0,0,0,4,.38c9.31,0,15.95-4.18,15.38-4.37h-.19c-1.14.19-12.34,4.56-19.37,2.28a.7.7,0,0,1,.19-.57c.57-2.09,1.71-1.9,3.61-1.9h0A41.72,41.72,0,0,0,333.11,240a27.69,27.69,0,0,0,8.55-5.89,12.4,12.4,0,0,1,1.52,5.7,4.64,4.64,0,0,1,1.33-.19C346.79,239.81,347.17,241.9,345.46,244.18Z" style="fill:#858585"/><polygon points="300.45 185.12 301.78 185.5 300.64 181.7 300.07 183.6 300.45 185.12" style="fill:#858585"/><path d="M306.14,186.44l-2.08-1.7.76,2.65A8.37,8.37,0,0,1,306.14,186.44Z" style="fill:#858585"/><path d="M325.33,220.44a7.88,7.88,0,0,1,3,.57c0-2.66-1.52-5.51-2.66-5.13h0c-.76.19-.76,1.33-.76,2.09A5.22,5.22,0,0,0,325.33,220.44Z" style="fill:#858585"/><path d="M303.87,188l-4.37-1.33,2.85,2.47C302.92,188.72,303.3,188.34,303.87,188Z" style="fill:#858585"/><path d="M315.07,224.24c.95.38,1.52.57,1.52.38a.94.94,0,0,0-.19-.57,4.52,4.52,0,0,0-2.47-1.71,6.29,6.29,0,0,0-6.27,1.14c-1,.76-1.33,1.52-1,1.52.19,0,.76-.19,1.52-.38C311.27,223.29,312.79,223.29,315.07,224.24Z" style="fill:#858585"/><path d="M315.26,226.71h.95c.19-.38-1.14-1.33-3.23-1.14-.19,0-.38.19-.76.19H312a4.76,4.76,0,0,0-1.33.76c-.38.38-.57.76-.38.95s.38,0,.95-.19A11.13,11.13,0,0,1,315.26,226.71Z" style="fill:#858585"/><path d="M281.27,235.25c.57.76.38,1.14.57,1.33a.26.26,0,0,0,.38,0c.38-.19.38-.57.38-1h0a3.51,3.51,0,0,0-1-2.28h0a5.35,5.35,0,0,0-3-1.7,4.28,4.28,0,0,0-2.47.19h0a.7.7,0,0,0-.57.19,6.07,6.07,0,0,0-3.8,7,7,7,0,0,0,1,2.09h0c.57.76,1.33.57.95,0a20.86,20.86,0,0,1-.57-2.09,5.62,5.62,0,0,1,1.14-3.8,3,3,0,0,1,1.52-1.14h0c.19,0,.19-.19.38-.19h.19c.38-.19.19,0,.57-.19h0C279.18,233.35,280.7,234.3,281.27,235.25Z" style="fill:#858585"/><path d="M280.32,237.53c-.19-.19-.38-.38-.38-.57,0-.38,0-.57.38-.76.19-.19.38-.19.38-.38s-.76-.38-1.52.19a1.8,1.8,0,0,0,.19,2.47c.95,1,2.28,1.14,2.47,2.28v1.14a2.53,2.53,0,0,1-3.23,1.9H278c-.19.19.57,1.14,2.09.95a3.56,3.56,0,0,0,3.22-4.37C283.16,238.48,281.08,238.1,280.32,237.53Z" style="fill:#858585"/><ellipse cx="328.27" cy="224.67" rx="1.33" ry="0.95" transform="translate(55.7 514.4) rotate(-81.14)" style="fill:#858585"/><ellipse cx="323.8" cy="226.17" rx="1.14" ry="1.52" transform="translate(-30.15 401.44) rotate(-61.28)" style="fill:#858585"/><path d="M494.73,164.45v-5.73c.36-2.22.63-4.47,1.1-6.67a46,46,0,0,1,52.73-35.94c26,4.09,43.36,30.15,37.31,55.86a46.25,46.25,0,0,1-51.93,35.12c-19-2.87-34.78-17.91-38.21-36.77C495.38,168.36,495.06,166.4,494.73,164.45Zm32.84,6.8c.51-.15.91-.28,1.32-.38l39.51-9.15c4.08-.94,4.08-.94,3.42-5.19A31.26,31.26,0,1,0,568.74,176c.28-.54.49-1.11.8-1.8-4-.94-7.84-1.74-11.61-2.74-2-.53-3.66-.71-4.78,1.44a4.77,4.77,0,0,1-1,1C545.16,180.48,532.81,179.26,527.57,171.25Z" style="fill:#858585"/><path d="M524.72,158.61c.49-6.16,6.42-12.19,13-13.45,6.35-1.23,14.07,1.83,16.46,6.65Z" style="fill:#858585"/><circle cx="100.66" cy="146.38" r="46" style="fill:#858585"/><path d="M120.18,128.32a2.44,2.44,0,0,1,2.31.13,2.42,2.42,0,0,1,.93,2.64q-3.87,18.33-7.78,36.66a2.7,2.7,0,0,1-1.23,1.95,2.6,2.6,0,0,1-2.38.15,3.61,3.61,0,0,1-.6-.35q-9.23-6.93-18.44-13.88l21.44-19.27c0-.1.3-.4.2-.58s-.33-.21-.69-.15a2.24,2.24,0,0,0-.93.35L86.6,152.62l-12-3.63c-.51-.37-1.21-1-1.16-1.67s.75-1.1,1-1.27C76.64,144.71,111.6,131.54,120.18,128.32Z" style="fill:#fff"/><path d="M93,155.64l-.76,11.85a3.37,3.37,0,0,0,1.15-.26,3.59,3.59,0,0,0,1.14-.82l5.53-5.48Z" style="fill:#d4d4d4"/><path d="M92.21,167.49a1.35,1.35,0,0,1-1.47-1.14c-.21-.84-1.85-6.26-4.14-13.71L113,136a2,2,0,0,1,.47-.24c.33-.13,1-.28,1.13,0a.32.32,0,0,1,0,.3.68.68,0,0,1-.2.35c-.23.23-9.2,8.29-21.44,19.28Z" style="fill:#e4e4e4"/><path d="M528.66,80.47A103.84,103.84,0,0,0,508,82c-15.2-31.52-46.56-53.16-82.79-53.16A89.43,89.43,0,0,0,380.85,40.6,136.77,136.77,0,0,0,294.7,10c-47,0-88.64,24-114.21,60.78a107.16,107.16,0,0,0-55.75-18.16C60.66,50.21,9.12,104.15,10,170.8c.84,62.73,44.53,131.93,135.79,131.93H526c59,0,106.87-49.72,106.91-111.07C633,131.6,586.42,81.92,528.66,80.47Z" style="fill:none;stroke:#f8963e;stroke-miterlimit:10;stroke-width:20px"/><g style="clip-path:url(#a)"><path d="M473.37,184.58H411.89A4.39,4.39,0,0,0,407.5,189v6.58h70.26V189a4.38,4.38,0,0,0-4.39-4.39Zm-52.69,6.58a2.2,2.2,0,1,1,2.19-2.19,2.2,2.2,0,0,1-2.19,2.19Zm43.91,0a2.2,2.2,0,1,1,2.2-2.19,2.2,2.2,0,0,1-2.2,2.19Zm0,0" style="fill:#c7c7c7;fill-rule:evenodd"/><path d="M486.55,197.75c.22-1.28-3.1-4.39-4.39-4.39H403.11c-2.2,0-4.61,3.11-4.39,4.39,1.81,10.24,6.59,32.93,6.59,32.93H480s4.78-22.69,6.59-32.93Zm0,0" style="fill:#737373;fill-rule:evenodd"/></g><path d="M480,230.68H405.31s-4.78,22.7-6.59,32.94a4.21,4.21,0,0,0,4.39,4.39h79.05a4.49,4.49,0,0,0,4.39-4.39c-1.81-10.24-6.59-32.94-6.59-32.94Zm0,0" style="fill:#868686;fill-rule:evenodd"/><path d="M435,230.68a8,8,0,0,1,4.62,3.43,10.43,10.43,0,0,1,1.42,5.39,10.32,10.32,0,0,1-3.41,8.19,12.8,12.8,0,0,1-8.73,3,13.13,13.13,0,0,1-8.64-2.82,9,9,0,0,1-3.28-7.63l.07-.15H422a6.33,6.33,0,0,0,1.85,4.79,7,7,0,0,0,5.07,1.78,7.16,7.16,0,0,0,5.13-1.78,7,7,0,0,0,1.86-5.27q0-3.53-1.66-5.21c-1.1-1.12-2.83-1.67-5.2-1.67h-4.51v-2Zm0,0" style="fill:#fafafa;fill-rule:evenodd"/><rect x="459.4" y="230.68" width="5.15" height="19.44" style="fill:#fafafa"/><path d="M422.27,222h-4.95l-.05-.16a9.26,9.26,0,0,1,3.13-7.35,13.81,13.81,0,0,1,17-.2c2.09,1.88,3.14,4.55,3.14,8a9.17,9.17,0,0,1-5.71,8.27l.24.11H424.55v-2h4.51c2.28,0,3.9-.58,4.85-1.72a7.29,7.29,0,0,0,1.42-4.78,6.93,6.93,0,0,0-1.62-5,6.27,6.27,0,0,0-4.78-1.71,6.66,6.66,0,0,0-4.84,1.77,6.34,6.34,0,0,0-1.82,4.7Zm0,0" style="fill:#e0e0e0;fill-rule:evenodd"/><g style="clip-path:url(#a)"><path d="M464.56,230.68H459.4V217l-7.8.1v-3.71l13-1.42Zm0,0" style="fill:#e0e0e0;fill-rule:evenodd"/><path d="M403.11,193.36a4.43,4.43,0,0,0-4.39,4.39c1.81,10.24,6.59,32.93,6.59,32.93" style="fill:#737373;fill-rule:evenodd"/></g><path d="M480,230.68s4.78-22.69,6.59-32.93a4.28,4.28,0,0,0-4.39-4.39" style="fill:#737373;fill-rule:evenodd"/></svg>