<svg xmlns="http://www.w3.org/2000/svg" viewBox="0 0 137.5 137.58"><title>evitt_logo</title><path d="M96.38,59.4H78.12V78.18h11.7a7.38,7.38,0,0,0,7.38-7.39V60.23A.83.83,0,0,0,96.38,59.4Z" style="fill:#f3bf56"/><path d="M59.35,89.8a7.48,7.48,0,0,0,7.48,7.49H77.3a.83.83,0,0,0,.82-.83V78.18H59.35Z" style="fill:#f3bf56"/><path d="M78.12,48.49a8.2,8.2,0,0,0-8.2-8.2H60.17a.83.83,0,0,0-.82.83V59.4H78.12Z" style="fill:#f3bf56"/><rect x="59.35" y="59.4" width="18.78" height="18.78" style="fill:#f8963c"/><polygon points="46.43 59.4 40.27 59.4 17.06 59.4 17.06 78.18 40.27 78.18 46.43 78.18 59.35 78.18 59.35 59.4 46.43 59.4" style="fill:#ea6934"/><polygon points="40.27 68.79 17.06 68.79 17.06 78.18 40.27 78.18 46.43 78.18 59.35 78.18 59.35 68.79 46.43 68.79 40.27 68.79" style="fill:#ea6934"/><path d="M117.35,20.15A69,69,0,0,0,103.46,9.41a75.53,75.53,0,0,0-5.91,5.31A74.45,74.45,0,0,0,85.32,30.86,41.43,41.43,0,0,1,86.9,106a74,74,0,0,0,19,20.66A68.77,68.77,0,0,0,117.35,20.15Z" style="fill:#f8963c"/><path d="M86.9,106a41.42,41.42,0,1,1-1.58-75.14A74.45,74.45,0,0,1,97.55,14.72a75.53,75.53,0,0,1,5.91-5.31,68.8,68.8,0,1,0,2.44,117.25A74,74,0,0,1,86.9,106Z" style="fill:#f3743c"/><path d="M13.9,68.79a55,55,0,0,0,81.4,48.29A74.13,74.13,0,0,1,87,106a41.42,41.42,0,1,1-1.58-75.13A74.27,74.27,0,0,1,93.3,19.47,55,55,0,0,0,13.9,68.79Z" style="fill:#ea6934"/></svg>