<svg xmlns="http://www.w3.org/2000/svg" viewBox="0 0 320.69 137.58"><title>Evitt Logo - Outlined-01</title><path d="M96.38,59.4H78.12V78.18h11.7a7.38,7.38,0,0,0,7.38-7.39V60.23A.83.83,0,0,0,96.38,59.4Z" style="fill:#f3bf56"/><path d="M59.35,89.8a7.48,7.48,0,0,0,7.48,7.49H77.3a.83.83,0,0,0,.82-.83V78.18H59.35Z" style="fill:#f3bf56"/><path d="M78.12,48.49a8.2,8.2,0,0,0-8.2-8.2H60.17a.83.83,0,0,0-.82.83V59.4H78.12Z" style="fill:#f3bf56"/><rect x="59.35" y="59.4" width="18.78" height="18.78" style="fill:#f8963c"/><polygon points="46.43 59.4 40.27 59.4 17.06 59.4 17.06 78.18 40.27 78.18 46.43 78.18 59.35 78.18 59.35 59.4 46.43 59.4" style="fill:#ea6934"/><polygon points="40.27 68.79 17.06 68.79 17.06 78.18 40.27 78.18 46.43 78.18 59.35 78.18 59.35 68.79 46.43 68.79 40.27 68.79" style="fill:#ea6934"/><path d="M117.35,20.15A69,69,0,0,0,103.46,9.41a75.53,75.53,0,0,0-5.91,5.31A74.45,74.45,0,0,0,85.32,30.86,41.43,41.43,0,0,1,86.9,106a74,74,0,0,0,19,20.66A68.77,68.77,0,0,0,117.35,20.15Z" style="fill:#f8963c"/><path d="M86.9,106a41.42,41.42,0,1,1-1.58-75.14A74.45,74.45,0,0,1,97.55,14.72a75.53,75.53,0,0,1,5.91-5.31,68.8,68.8,0,1,0,2.44,117.25A74,74,0,0,1,86.9,106Z" style="fill:#f3743c"/><path d="M13.9,68.79a55,55,0,0,0,81.4,48.29A74.13,74.13,0,0,1,87,106a41.42,41.42,0,1,1-1.58-75.13A74.27,74.27,0,0,1,93.3,19.47,55,55,0,0,0,13.9,68.79Z" style="fill:#ea6934"/><path d="M206.94,71.68c0,1.82-1,2.73-3.1,2.73H178.13q0,6.12,3.06,9.45t8.66,3.33a11.25,11.25,0,0,0,6.58-1.93,9.77,9.77,0,0,0,1.85-1.63c.48-.55.87-1,1.18-1.43a5.12,5.12,0,0,1,1-1.14,2.39,2.39,0,0,1,1.47-.38,3.73,3.73,0,0,1,2.08.68,2.1,2.1,0,0,1,1,1.82,4.7,4.7,0,0,1-.83,2.34,19,19,0,0,1-1.78,2.31,14,14,0,0,1-2.79,2.38,15.8,15.8,0,0,1-4.13,1.89,18.85,18.85,0,0,1-5.67.76,19.4,19.4,0,0,1-7.68-1.47,16.74,16.74,0,0,1-5.86-4.16,18.38,18.38,0,0,1-3.7-6.43,26.87,26.87,0,0,1,0-16.45A18.64,18.64,0,0,1,176.28,58,16.25,16.25,0,0,1,182,53.8a18.5,18.5,0,0,1,7.53-1.48A17.88,17.88,0,0,1,197,53.8a15.18,15.18,0,0,1,5.44,4.08,18.07,18.07,0,0,1,3.33,6.17A24.83,24.83,0,0,1,206.94,71.68ZM189.55,57.84a11.29,11.29,0,0,0-4.61.87,9.7,9.7,0,0,0-3.33,2.35,11,11,0,0,0-2.16,3.48,15.57,15.57,0,0,0-1,4.19h22a17.73,17.73,0,0,0-.95-4.12,10.58,10.58,0,0,0-2-3.48,10.06,10.06,0,0,0-3.29-2.38A11,11,0,0,0,189.55,57.84Z" style="fill:#f3743c"/><path d="M212.69,58.52c-.2-.5-.39-1-.57-1.4a3.32,3.32,0,0,1-.26-1.24A2.34,2.34,0,0,1,213,53.83a4.73,4.73,0,0,1,2.61-.75c1.16,0,2,.7,2.57,2.12l11.65,28.59L241.58,55a4,4,0,0,1,1-1.51,2.13,2.13,0,0,1,1.43-.45,4.72,4.72,0,0,1,2.5.68,2.17,2.17,0,0,1,1.13,2,3.24,3.24,0,0,1-.26,1.18q-.27.65-.57,1.32L233.26,90.14a3.18,3.18,0,0,1-1.17,1.44,6.08,6.08,0,0,1-4.92,0A3.25,3.25,0,0,1,226,90.14Z" style="fill:#f3743c"/><path d="M253.91,42.64a4,4,0,0,1,1.17-3.06,4.41,4.41,0,0,1,5.83,0,4,4,0,0,1,1.17,3.06,4,4,0,0,1-1.17,3.06,4.41,4.41,0,0,1-5.83,0A4,4,0,0,1,253.91,42.64Zm.91,13.46a2.84,2.84,0,0,1,.83-2.38,3.72,3.72,0,0,1,2.34-.64,3.94,3.94,0,0,1,2.39.64,2.79,2.79,0,0,1,.87,2.38v33a2.79,2.79,0,0,1-.87,2.38,3.94,3.94,0,0,1-2.39.64,3.72,3.72,0,0,1-2.34-.64,2.84,2.84,0,0,1-.83-2.38Z" style="fill:#f3743c"/><path d="M270.7,59.05a2.39,2.39,0,0,1-2-.72,4,4,0,0,1,0-4,2.39,2.39,0,0,1,2-.72h3.4V45.82a6.13,6.13,0,0,1,.27-2.12,2.58,2.58,0,0,1,1.09-1.21,5.53,5.53,0,0,1,3-.83c1.42,0,2.12.73,2.12,2.19v9.76h7.11a2.39,2.39,0,0,1,2,.72,4,4,0,0,1,0,4,2.39,2.39,0,0,1-2,.72h-7.11V81.44c0,2.22.34,3.73,1,4.54A4.28,4.28,0,0,0,285,87.19a4.63,4.63,0,0,0,1.54-.23c.43-.15.82-.3,1.18-.45s.69-.3,1-.46a2.81,2.81,0,0,1,1.17-.22,2.4,2.4,0,0,1,1.85.9,3.24,3.24,0,0,1,.8,2.2c0,1.21-.78,2.15-2.35,2.83a14.65,14.65,0,0,1-5.9,1q-5.22,0-7.71-2.54c-1.66-1.69-2.5-4.15-2.5-7.37V59.05Z" style="fill:#f3743c"/><path d="M298.83,59.05a2.41,2.41,0,0,1-2-.72,4,4,0,0,1,0-4,2.41,2.41,0,0,1,2-.72h3.41V45.82a6.44,6.44,0,0,1,.26-2.12,2.61,2.61,0,0,1,1.1-1.21,5.51,5.51,0,0,1,2.95-.83,1.91,1.91,0,0,1,2.12,2.19v9.76h7.11a2.42,2.42,0,0,1,2,.72,4,4,0,0,1,0,4,2.42,2.42,0,0,1-2,.72h-7.11V81.44c0,2.22.34,3.73,1,4.54a4.26,4.26,0,0,0,3.44,1.21,4.73,4.73,0,0,0,1.55-.23q.65-.22,1.17-.45c.35-.15.69-.3,1-.46a2.81,2.81,0,0,1,1.17-.22,2.41,2.41,0,0,1,1.86.9,3.23,3.23,0,0,1,.79,2.2c0,1.21-.78,2.15-2.34,2.83a14.68,14.68,0,0,1-5.9,1q-5.22,0-7.72-2.54t-2.49-7.37V59.05Z" style="fill:#f3743c"/></svg>