<svg xmlns="http://www.w3.org/2000/svg" viewBox="0 0 295.39 309.98"><title>content_box_intelligent</title><path d="M129.16,0H116.24A116.38,116.38,0,0,0,0,116.24V310H129.16V271.23H245.4v-71h50l-50-85.72A116.38,116.38,0,0,0,129.16,0ZM232.49,187.28v71H116.24v38.74H12.92V116.24A103.44,103.44,0,0,1,116.24,12.92h12.92A103.45,103.45,0,0,1,232.49,116.24V118l40.42,69.29Z" style="fill:#f8963e"/><path d="M122.7,25.83a90.41,90.41,0,1,0,90.41,90.41A90.52,90.52,0,0,0,122.7,25.83ZM185.52,71H161.45V49.23A78.14,78.14,0,0,1,185.52,71Zm-37,118.18V122.7h7.65a19.37,19.37,0,1,0,0-12.92H135.62v82.79a77.49,77.49,0,0,1-12.92,1.17V135.62H102.14a19.38,19.38,0,1,0,0,12.91h7.64v44A77.3,77.3,0,0,1,64.58,65.15V96.87h27A19.37,19.37,0,1,0,91.6,84H77.5V53.43a76.62,76.62,0,0,1,71-10.16V84h44.53a77.19,77.19,0,0,1-44.53,105.27Zm19.38-73a6.46,6.46,0,1,1,6.45,6.46A6.46,6.46,0,0,1,167.91,116.24Zm-77.5,25.83A6.46,6.46,0,1,1,84,135.62,6.46,6.46,0,0,1,90.41,142.07Zm12.92-51.66a6.46,6.46,0,1,1,6.45,6.46A6.46,6.46,0,0,1,103.33,90.41Z" style="fill:#f8963e"/></svg>