<svg xmlns="http://www.w3.org/2000/svg" xmlns:xlink="http://www.w3.org/1999/xlink" id="Layer_1" x="0" y="0" version="1.1" viewBox="0 0 66.8 66.8" style="enable-background:new 0 0 66.8 66.8" xml:space="preserve"><style type="text/css">.st0{fill:#3d90e3}</style><path d="M51.5,53.9c1.4,0,2.5-1.1,2.5-2.5V25.7c0-1.4-1.1-2.5-2.5-2.5h-3.7v-8.8c0-8-6.5-14.5-14.5-14.5	S18.9,6.5,18.9,14.5v8.8h-3.7c-1.4,0-2.5,1.1-2.5,2.5v25.7c0,1.4,1.1,2.5,2.5,2.5h17.2v4.6h-4.2c-0.6,0-1,0.4-1,1v2.2h-8.3	c-0.6,0-1,0.4-1,1s0.4,1,1,1h8.3v2.2c0,0.6,0.4,1,1,1h10.5c0.6,0,1-0.4,1-1v-2.2h8.3c0.6,0,1-0.4,1-1s-0.4-1-1-1h-8.3v-2.2	c0-0.6-0.4-1-1-1h-4.2v-4.6H51.5z M37.6,64.8h-8.5v-2.1c0,0,0,0,0,0s0,0,0,0v-2.2h8.5V64.8z M20.9,14.5C20.9,7.6,26.5,2,33.4,2	s12.5,5.6,12.5,12.5v8.8H20.9V14.5z M14.8,51.4V25.7c0-0.2,0.2-0.5,0.5-0.5h4.7h26.9h4.7c0.2,0,0.5,0.2,0.5,0.5v25.7	c0,0.2-0.2,0.5-0.5,0.5H15.2C15,51.9,14.8,51.7,14.8,51.4z" class="st0"/><path d="M36.7,44.8v-4.2c1.2-1,1.9-2.5,1.9-4c0-2.9-2.3-5.2-5.2-5.2s-5.2,2.3-5.2,5.2c0,1.6,0.7,3.1,1.9,4v4.2	c0,0.6,0.4,1,1,1h4.6C36.2,45.8,36.7,45.3,36.7,44.8z M34.7,40.1v3.7h-2.6v-3.7c0-0.3-0.2-0.7-0.5-0.8c-0.9-0.6-1.5-1.6-1.5-2.7	c0-1.8,1.4-3.2,3.2-3.2s3.2,1.4,3.2,3.2c0,1.1-0.5,2.1-1.5,2.7C34.9,39.4,34.7,39.7,34.7,40.1z" class="st0"/><text transform="matrix(1 0 0 1 -1.605 83.3975)" style="font-family:'HelveticaNeue-Bold';font-size:5px">Created by rivercon</text><text transform="matrix(1 0 0 1 -1.605 88.3975)" style="font-family:'HelveticaNeue-Bold';font-size:5px">from the Noun Project</text></svg>