<svg xmlns="http://www.w3.org/2000/svg" xmlns:xlink="http://www.w3.org/1999/xlink" id="Layer_1" x="0" y="0" version="1.1" viewBox="0 0 699.8 515.9" style="enable-background:new 0 0 699.8 515.9" xml:space="preserve"><style type="text/css">.st0{fill:#f1f2f2}.st1{fill:#78e1ff}.st2{fill:#ff998c}.st3{fill:#808285}.st4{fill:#ffef7c}</style><g><path d="M1.8,63.6v275.3c0,17.1,13.9,31,31,31h544.7c17.1,0,31-13.9,31-31V63.6H1.8z" class="st0"/><path d="M577.5,371.6H32.8C14.7,371.6,0,356.9,0,338.8V63.6c0-1,0.8-1.8,1.8-1.8h606.7c1,0,1.8,0.8,1.8,1.8v275.3 C610.3,356.9,595.6,371.6,577.5,371.6z M3.6,65.4v273.4c0,16.1,13.1,29.2,29.2,29.2h544.7c16.1,0,29.2-13.1,29.2-29.2V65.4H3.6z"/></g><g><path d="M546.7,228.7c0,32.3-26.2,58.4-58.4,58.4H121.9c-32.2,0-58.4-26.1-58.4-58.4v-24.9c0-32.3,26.2-58.4,58.4-58.4 h366.3c32.3,0,58.4,26.2,58.4,58.4L546.7,228.7L546.7,228.7z" class="st1"/><path d="M488.3,288.9H121.9c-33.2,0-60.2-27-60.2-60.2v-24.9c0-33.2,27-60.2,60.2-60.2h366.3c33.2,0,60.2,27,60.2,60.2v24.9 C548.5,261.9,521.5,288.9,488.3,288.9z M121.9,147.2c-31.2,0-56.6,25.4-56.6,56.6v24.9c0,31.2,25.4,56.6,56.6,56.6h366.3 c31.2,0,56.6-25.4,56.6-56.6v-24.9c0-31.2-25.4-56.6-56.6-56.6H121.9z"/></g><g><path d="M608.5,32.8c0-17.1-13.9-31-31-31H32.8c-17.1,0-31,13.9-31,31v30.8h606.7V32.8L608.5,32.8z" class="st2"/><path d="M608.5,65.4H1.8c-1,0-1.8-0.8-1.8-1.8V32.8C0,14.7,14.7,0,32.8,0h544.7c18.1,0,32.8,14.7,32.8,32.8v30.8 C610.3,64.6,609.5,65.4,608.5,65.4z M3.6,61.7h603.1V32.8c0-16.1-13.1-29.2-29.2-29.2H32.8C16.7,3.6,3.6,16.7,3.6,32.8V61.7z"/></g><g><polygon points="186.2 202.1 176.6 185.5 152.1 199.7 152.1 171.4 133 171.4 133 199.7 108.5 185.5 99 202.1 123.5 216.2 99 230.4 108.5 246.9 133 232.8 133 261.1 152.1 261.1 152.1 232.8 176.6 246.9 186.2 230.4 161.7 216.2" class="st3"/><path d="M152.1,262.9H133c-1,0-1.8-0.8-1.8-1.8v-25.2l-21.8,12.6c-0.9,0.5-2,0.2-2.5-0.7l-9.6-16.5c-0.2-0.4-0.3-0.9-0.2-1.4 c0.1-0.5,0.4-0.9,0.8-1.1l21.8-12.6l-21.8-12.6c-0.4-0.2-0.7-0.6-0.8-1.1s-0.1-1,0.2-1.4l9.6-16.5c0.5-0.9,1.6-1.2,2.5-0.7 l21.8,12.6v-25.1c0-1,0.8-1.8,1.8-1.8h19.1c1,0,1.8,0.8,1.8,1.8v25.1l21.8-12.6c0.4-0.2,0.9-0.3,1.4-0.2c0.5,0.1,0.9,0.4,1.1,0.8 l9.5,16.5c0.5,0.9,0.2,2-0.7,2.5l-21.8,12.6l21.8,12.6c0.9,0.5,1.2,1.6,0.7,2.5l-9.5,16.5c-0.2,0.4-0.6,0.7-1.1,0.8s-1,0.1-1.4-0.2 l-21.8-12.6v25.1C153.9,262.1,153.1,262.9,152.1,262.9z M134.8,259.2h15.5v-26.5c0-0.6,0.3-1.2,0.9-1.6c0.6-0.3,1.3-0.3,1.8,0 l22.9,13.2l7.7-13.4l-22.9-13.2c-0.6-0.3-0.9-0.9-0.9-1.6c0-0.6,0.3-1.2,0.9-1.6l22.9-13.2l-7.7-13.4L153,201.1 c-0.6,0.3-1.3,0.3-1.8,0c-0.6-0.3-0.9-0.9-0.9-1.6V173h-15.5v26.5c0,0.6-0.3,1.2-0.9,1.6c-0.6,0.3-1.3,0.3-1.8,0L109.2,188 l-7.7,13.4l22.9,13.2c0.6,0.3,0.9,0.9,0.9,1.6c0,0.6-0.3,1.2-0.9,1.6L101.5,231l7.7,13.4l22.9-13.2c0.6-0.3,1.3-0.3,1.8,0 c0.6,0.3,0.9,0.9,0.9,1.6L134.8,259.2L134.8,259.2z"/></g><g><polygon points="300.8 202.1 291.3 185.5 266.8 199.7 266.8 171.4 247.7 171.4 247.7 199.7 223.2 185.5 213.6 202.1 238.1 216.2 213.6 230.4 223.2 246.9 247.7 232.8 247.7 261.1 266.8 261.1 266.8 232.8 291.3 246.9 300.8 230.4 276.3 216.2" class="st3"/><path d="M266.8,262.9h-19.1c-1,0-1.8-0.8-1.8-1.8v-25.2l-21.8,12.6c-0.4,0.2-0.9,0.3-1.4,0.2s-0.9-0.4-1.1-0.8l-9.6-16.5 c-0.2-0.4-0.3-0.9-0.2-1.4s0.4-0.9,0.8-1.1l21.8-12.6l-21.8-12.6c-0.4-0.2-0.7-0.6-0.8-1.1s-0.1-1,0.2-1.4l9.6-16.5 c0.2-0.4,0.6-0.7,1.1-0.8c0.5-0.1,1-0.1,1.4,0.2l21.8,12.6v-25.1c0-1,0.8-1.8,1.8-1.8h19.1c1,0,1.8,0.8,1.8,1.8v24.9l21.8-12.6 c0.9-0.5,2-0.2,2.5,0.7l9.6,16.5c0.2,0.4,0.3,0.9,0.2,1.4s-0.4,0.9-0.8,1.1l-21.8,12.6l21.8,12.6c0.4,0.2,0.7,0.6,0.8,1.1 s0.1,1-0.2,1.4l-9.6,16.5c-0.5,0.9-1.6,1.2-2.5,0.7l-21.8-12.6V261C268.6,262.1,267.8,262.9,266.8,262.9z M249.5,259.2H265v-26.5 c0-0.6,0.3-1.2,0.9-1.6c0.6-0.3,1.3-0.3,1.8,0l22.9,13.2l7.7-13.4l-22.9-13.2c-0.6-0.3-0.9-0.9-0.9-1.6c0-0.6,0.3-1.2,0.9-1.6 l22.9-13.2l-7.7-13.4l-22.9,13.2c-0.6,0.3-1.3,0.3-1.8,0c-0.6-0.3-0.9-0.9-0.9-1.6V173h-15.5v26.5c0,0.6-0.3,1.2-0.9,1.6 c-0.6,0.3-1.3,0.3-1.8,0l-22.9-13.2l-7.7,13.4l22.9,13.2c0.6,0.3,0.9,0.9,0.9,1.6c0,0.6-0.3,1.2-0.9,1.6l-22.9,13.2l7.7,13.4 l22.9-13.2c0.6-0.3,1.3-0.3,1.8,0c0.6,0.3,0.9,0.9,0.9,1.6V259.2z"/></g><g><polygon points="415.5 202.1 405.9 185.5 381.4 199.7 381.4 171.4 362.3 171.4 362.3 199.7 337.8 185.5 328.3 202.1 352.8 216.2 328.3 230.4 337.8 246.9 362.3 232.8 362.3 261.1 381.4 261.1 381.4 232.8 405.9 246.9 415.5 230.4 391 216.2" class="st3"/><path d="M381.4,262.9h-19.1c-1,0-1.8-0.8-1.8-1.8v-25.2l-21.8,12.6c-0.9,0.5-2,0.2-2.5-0.7l-9.6-16.5c-0.2-0.4-0.3-0.9-0.2-1.4 s0.4-0.9,0.8-1.1l21.8-12.6l-21.8-12.6c-0.4-0.2-0.7-0.6-0.8-1.1s-0.1-1,0.2-1.4l9.6-16.5c0.5-0.9,1.6-1.2,2.5-0.7l21.8,12.6v-25.1 c0-1,0.8-1.8,1.8-1.8h19.1c1,0,1.8,0.8,1.8,1.8v25.1l21.8-12.6c0.4-0.2,0.9-0.3,1.4-0.2c0.5,0.1,0.9,0.4,1.1,0.8L417,201 c0.5,0.9,0.2,2-0.7,2.5l-21.8,12.6l21.8,12.6c0.9,0.5,1.2,1.6,0.7,2.5l-9.5,16.5c-0.2,0.4-0.6,0.7-1.1,0.8s-1,0.1-1.4-0.2 l-21.8-12.4V261C383.2,262.1,382.4,262.9,381.4,262.9z M364.1,259.2h15.5v-26.5c0-0.6,0.3-1.2,0.9-1.6c0.6-0.3,1.3-0.3,1.8,0 l22.9,13.2l7.7-13.4L390,217.7c-0.6-0.3-0.9-0.9-0.9-1.6c0-0.6,0.3-1.2,0.9-1.6l22.9-13.2l-7.7-13.4l-22.9,13.2 c-0.6,0.3-1.3,0.3-1.8,0c-0.6-0.3-0.9-0.9-0.9-1.6V173h-15.5v26.5c0,0.6-0.3,1.2-0.9,1.6c-0.6,0.3-1.3,0.3-1.8,0l-22.9-13.2 l-7.7,13.4l22.9,13.2c0.6,0.3,0.9,0.9,0.9,1.6c0,0.6-0.3,1.2-0.9,1.6l-22.9,13.2l7.7,13.4l22.9-13.2c0.6-0.3,1.3-0.3,1.8,0 c0.6,0.3,0.9,0.9,0.9,1.6V259.2z"/></g><g><path d="M63.5,34.5H31c-1,0-1.8-0.8-1.8-1.8s0.8-1.8,1.8-1.8h32.5c1,0,1.8,0.8,1.8,1.8C65.3,33.7,64.5,34.5,63.5,34.5z"/></g><g><path d="M121.4,34.5H88.9c-1,0-1.8-0.8-1.8-1.8s0.8-1.8,1.8-1.8h32.5c1,0,1.8,0.8,1.8,1.8S122.4,34.5,121.4,34.5z"/></g><g><path d="M179.3,34.5h-32.5c-1,0-1.8-0.8-1.8-1.8s0.8-1.8,1.8-1.8h32.5c1,0,1.8,0.8,1.8,1.8C181.1,33.7,180.3,34.5,179.3,34.5z"/></g><g><g><g><path d="M544.3,514.1C612.8,491,651,433,672.3,379.9l-224.2,59.7C470.5,471.6,501.5,499.7,544.3,514.1z" class="st4"/><path d="M544.3,515.9c-0.2,0-0.4,0-0.6-0.1c-38.6-13-71.3-38.3-97.1-75.2c-0.3-0.5-0.4-1.1-0.2-1.7c0.2-0.6,0.7-1,1.2-1.1 l224.2-59.7c0.7-0.2,1.4,0,1.8,0.6c0.5,0.5,0.6,1.2,0.3,1.9c-27.7,69.4-72.4,116.1-129.1,135.2 C544.7,515.9,544.5,515.9,544.3,515.9z M451.1,440.6c25,34.9,56.4,59,93.2,71.5c55.3-18.8,97.3-62.4,124.9-129.6L451.1,440.6z"/></g><g><path d="M544.3,234.8L390.6,275c0,0,2.5,34.4,16,77.6L697.9,275L544.3,234.8z" class="st4"/><path d="M406.6,354.3c-0.8,0-1.5-0.5-1.7-1.3c-13.4-42.9-16.1-77.6-16.1-78c-0.1-0.9,0.5-1.7,1.3-1.9l153.7-40.2 c0.3-0.1,0.6-0.1,0.9,0l153.7,40.2c0.8,0.2,1.4,0.9,1.4,1.8c0,0.8-0.6,1.5-1.3,1.8l-291.3,77.6 C406.9,354.3,406.8,354.3,406.6,354.3z M392.5,276.3c0.7,7,4,37.3,15.3,74l283-75.4l-146.6-38.3L392.5,276.3z"/></g><g><path d="M406.6,352.5c8.6,27.6,21.7,58.8,41.5,87l224.2-59.7c22-55.1,25.7-104.9,25.7-104.9L406.6,352.5z" class="st3"/><path d="M448.1,441.4c-0.6,0-1.1-0.3-1.5-0.8c-17.2-24.6-31.3-54-41.7-87.5c-0.1-0.5-0.1-1,0.1-1.4c0.2-0.4,0.6-0.7,1.1-0.9 l291.3-77.6c0.6-0.1,1.2,0,1.6,0.4c0.5,0.4,0.7,0.9,0.6,1.5c0,0.5-4,50.7-25.8,105.5c-0.2,0.5-0.7,0.9-1.2,1.1l-224.2,59.7 C448.4,441.4,448.2,441.4,448.1,441.4z M408.9,353.8c10.1,31.9,23.5,60.1,39.9,83.7l222.1-59.1c18.6-46.9,23.9-90.2,25-101 L408.9,353.8z"/></g></g><g><path d="M425.4,401c-0.8,0-1.5-0.5-1.8-1.3c-0.3-1,0.3-2,1.3-2.2L569.6,359c1-0.2,2,0.3,2.2,1.3c0.3,1-0.3,2-1.3,2.2L425.8,401 C425.7,400.9,425.5,401,425.4,401z"/></g></g></svg>