<?xml version="1.0" encoding="utf-8"?>
<!-- Generator: Adobe Illustrator 23.0.1, SVG Export Plug-In . SVG Version: 6.00 Build 0)  -->
<svg version="1.1" id="Layer_1" xmlns="http://www.w3.org/2000/svg" xmlns:xlink="http://www.w3.org/1999/xlink" x="0px" y="0px"
	 viewBox="0 0 66 66" style="enable-background:new 0 0 66 66;" xml:space="preserve">
<style type="text/css">
	.st0{fill:#3D90E3;}
</style>
<g>
	<g>
		<path class="st0" d="M52.3,60.6c-0.6,0-1,0.4-1,1V64H2V2h33.5v16.1c0,0.6,0.4,1,1,1h14.9v9.4c0,0.6,0.4,1,1,1s1-0.4,1-1V18.1
			c0-0.2-0.1-0.5-0.3-0.7L37.2,0.3l0,0C37,0.1,36.7,0,36.4,0l0,0H1C0.4,0,0,0.4,0,1v64c0,0.6,0.4,1,1,1h51.3c0.6,0,1-0.4,1-1v-3.4
			C53.3,61.1,52.9,60.6,52.3,60.6z M37.5,17.1V3.5L50,17.1H37.5z"/>
	</g>
	<g>
		<path class="st0" d="M6.2,43.4h26c0.6,0,1-0.4,1-1s-0.4-1-1-1h-26c-0.6,0-1,0.4-1,1C5.2,42.9,5.6,43.4,6.2,43.4z"/>
	</g>
	<g>
		<path class="st0" d="M6.2,50.6h27c0.6,0,1-0.4,1-1s-0.4-1-1-1h-27c-0.6,0-1,0.4-1,1C5.2,50.2,5.6,50.6,6.2,50.6z"/>
	</g>
	<g>
		<path class="st0" d="M6.2,57.8h30c0.6,0,1-0.4,1-1s-0.4-1-1-1h-30c-0.6,0-1,0.4-1,1S5.6,57.8,6.2,57.8z"/>
	</g>
	<g>
		<path class="st0" d="M41.2,27.4c0-0.6-0.4-1-1-1h-34c-0.6,0-1,0.4-1,1s0.4,1,1,1h34C40.8,28.4,41.2,27.9,41.2,27.4z"/>
	</g>
	<g>
		<path class="st0" d="M6.2,35.6h28c0.6,0,1-0.4,1-1s-0.4-1-1-1h-28c-0.6,0-1,0.4-1,1S5.6,35.6,6.2,35.6z"/>
	</g>
	<g>
		<path class="st0" d="M65.7,44.1l-2.5-2.4l0.9-3.3c0.1-0.5-0.2-1.1-0.7-1.2l-3-0.8l-0.7-3c-0.1-0.3-0.2-0.5-0.4-0.6
			s-0.5-0.2-0.8-0.1l-3.8,0.8l-2.8-2.7c-0.2-0.2-0.5-0.3-0.7-0.3c-0.3,0-0.5,0.1-0.7,0.3L48,33.2l-3.3-0.9c-0.3-0.1-0.5,0-0.8,0.1
			c-0.2,0.1-0.4,0.4-0.5,0.6l-0.8,3l-3,0.7c-0.5,0.1-0.9,0.7-0.8,1.2l0.8,3.9L37,44.6c-0.4,0.4-0.4,1,0,1.4l2.5,2.4l-0.9,3.3
			c-0.1,0.5,0.2,1.1,0.7,1.2l3,0.8l0.7,3c0.1,0.3,0.2,0.5,0.4,0.6s0.5,0.2,0.8,0.1l3.8-0.8l2.8,2.7c0.2,0.2,0.4,0.3,0.7,0.3l0,0
			c0.3,0,0.5-0.1,0.7-0.3l2.4-2.5l3.3,0.9c0.3,0.1,0.5,0,0.8-0.1c0.2-0.1,0.4-0.4,0.5-0.6l0.8-3l3-0.7c0.5-0.1,0.9-0.7,0.8-1.2
			L63,48.3l2.7-2.8C66.1,45.1,66.1,44.5,65.7,44.1z M61.2,47.3c-0.2,0.2-0.3,0.6-0.3,0.9l0.7,3.4L59,52.2c-0.4,0.1-0.7,0.4-0.8,0.7
			l-0.7,2.6l-2.9-0.8c-0.3-0.1-0.7,0-1,0.3l-2.1,2.2L49,54.8c-0.2-0.2-0.4-0.3-0.7-0.3c-0.1,0-0.1,0-0.2,0l-3.4,0.7l-0.6-2.7
			c-0.1-0.4-0.4-0.7-0.7-0.8L40.8,51l0.8-2.9c0.1-0.3,0-0.7-0.3-1L39.1,45l2.4-2.5c0.2-0.2,0.3-0.6,0.3-0.9L41,38.5l2.6-0.6
			c0.4-0.1,0.7-0.4,0.8-0.7l0.7-2.6l2.9,0.8c0.3,0.1,0.7,0,1-0.3l2.1-2.2l2.5,2.4c0.2,0.2,0.6,0.3,0.9,0.3l3.4-0.7l0.6,2.7
			c0.1,0.4,0.4,0.7,0.7,0.8l2.6,0.7L61,42c-0.1,0.3,0,0.7,0.3,1l2.2,2.1L61.2,47.3z"/>
	</g>
	<g>
		<path class="st0" d="M57.6,40.6l-7.9,7.5l-3.1-3.7c-0.3-0.4-1-0.5-1.4-0.1s-0.5,1-0.1,1.4l3.8,4.6c0.2,0.2,0.4,0.3,0.7,0.4
			c0,0,0,0,0.1,0c0.3,0,0.5-0.1,0.7-0.3l8.7-8.3c0.4-0.4,0.4-1,0-1.4C58.6,40.3,58,40.2,57.6,40.6z"/>
	</g>
	<g>
		<path class="st0" d="M29.7,19.4c0.6,0,1-0.4,1-1V8.6c0-0.6-0.4-1-1-1h-23c-0.6,0-1,0.4-1,1v9.7c0,0.6,0.4,1,1,1h23V19.4z M7.7,9.6
			h21v7.7h-21C7.7,17.3,7.7,9.6,7.7,9.6z"/>
	</g>
</g>
<text transform="matrix(1 0 0 1 -1 82)" style="font-family:'HelveticaNeue-Bold'; font-size:5px;">Created by Vectors Market</text>
<text transform="matrix(1 0 0 1 -1 87)" style="font-family:'HelveticaNeue-Bold'; font-size:5px;">from the Noun Project</text>
</svg>
