<svg xmlns="http://www.w3.org/2000/svg" xmlns:xlink="http://www.w3.org/1999/xlink" viewBox="0 0 496.88 188.14"><defs><style>.a{fill:none}.b{fill:url(#a)}.c{fill:url(#b)}.d{fill:url(#c)}.e{fill:url(#d)}.f{fill:url(#e)}.g{fill:url(#f)}</style><linearGradient id="a" x1="-430.63" x2="-429.63" y1="-109.77" y2="-109.77" gradientTransform="matrix(119.13, 0, 0, -119.14, 51331.84, -12989.37)" gradientUnits="userSpaceOnUse"><stop offset="0" stop-color="#3d90e3"/><stop offset="1" stop-color="#3d90e3"/></linearGradient><linearGradient id="b" x1="-430.63" x2="-429.63" y1="-109.77" y2="-109.77" gradientTransform="matrix(83.39, 0, 0, -89.35, 35976.9, -9733.97)" xlink:href="#a"/><linearGradient id="c" x1="-430.63" x2="-429.63" y1="-109.77" y2="-109.77" gradientTransform="matrix(23.83, 0, 0, -29.78, 10338.56, -3134.84)" xlink:href="#a"/><linearGradient id="d" x1="-430.63" x2="-429.63" y1="-109.77" y2="-109.77" gradientTransform="matrix(36.92, 0, 0, -16.6, 15897.8, -1665.12)" xlink:href="#a"/><linearGradient id="e" x1="-430.63" x2="-429.63" y1="-109.77" y2="-109.77" gradientTransform="matrix(11.29, 0, 0, -8.66, 4914.75, -794.34)" xlink:href="#a"/><linearGradient id="f" x1="-429.82" x2="-428.82" y1="-108.28" y2="-108.28" gradientTransform="matrix(320.6, 0, 0, -69.75, 137976.7, -7450.33)" gradientUnits="userSpaceOnUse"><stop offset="0" stop-color="#164e87"/><stop offset="1" stop-color="#164e87"/></linearGradient></defs><title>share_securely_header</title><rect width="172.75" height="172.75" class="a"/><path d="M80.42,148.27a3,3,0,0,1-2.83-2L66.14,111.9,31.82,100.46a3,3,0,0,1-.55-5.4L144.45,29.54a3,3,0,0,1,4.42,3.09L131,133.9a3,3,0,0,1-4.11,2.22L88.56,119.7l-5.23,26.18a3,3,0,0,1-2.74,2.39A1,1,0,0,0,80.42,148.27ZM40,96.89l29.46,9.83a3,3,0,0,1,1.89,1.88l8.36,25.1,3.76-18.79a3,3,0,0,1,4.1-2.15l38.24,16.39L141.9,37.89Z" class="b" transform="translate(0 0.65)"/><rect width="137.01" height="148.92" x="35.87" y=".91" class="a"/><path d="M86.5,119.4a3,3,0,0,1-1.73-.55,3,3,0,0,1-.69-4.15l38.65-54.11-52,52a3,3,0,0,1-4.21-4.21L144,30.93a3,3,0,0,1,4.54,3.83l-59.57,83.4A3,3,0,0,1,86.5,119.4Z" class="c" transform="translate(0 0.65)"/><rect width="77.44" height="89.35" x="48.65" y="90.7" class="a"/><path d="M81.42,149.62A3,3,0,0,1,79,144.85L96.9,121a3,3,0,0,1,4.77,3.57L83.8,148.43A3,3,0,0,1,81.42,149.62Z" class="d" transform="translate(0 0.65)"/><path d="M33,165.37a42.8,42.8,0,0,1-8.57-.89,3,3,0,0,1,1.2-5.84,36.7,36.7,0,0,0,7.37.77h0l1.34,0a2.8,2.8,0,0,1,3.09,2.87,3,3,0,0,1-2.87,3.09l-1.56,0Zm-21.34-5.7a2.92,2.92,0,0,1-1.37-.34,77.47,77.47,0,0,1-8.46-5.14,3,3,0,0,1,3.4-4.89,69.67,69.67,0,0,0,7.8,4.75,3,3,0,0,1-1.37,5.62Z" class="e" transform="translate(0 0.65)"/><rect width="65.52" height="65.52" x="21.61" y="122.61" class="a"/><path d="M54.37,160.41a3,3,0,0,1-1.16-5.72,44.07,44.07,0,0,0,5-2.53,3,3,0,0,1,3,5.14,50.26,50.26,0,0,1-5.67,2.87A3,3,0,0,1,54.37,160.41Z" class="f" transform="translate(0 0.65)"/><path d="M174.58,126.1c148.42-.5,168.42-.5,316.85,0" class="a" transform="translate(0 0.65)"/><path d="M190.93,114.55q-6.66,0-10.65-2.52a8.51,8.51,0,0,1-4-7.73h0a7.64,7.64,0,0,1,.95-4.2,3.12,3.12,0,0,1,2.8-1.45h0a3.34,3.34,0,0,1,2.2.7,2.26,2.26,0,0,1,.85,1.8h0a9,9,0,0,1-.15,1.75h0a5.85,5.85,0,0,1-.08.7,7,7,0,0,0-.07,1.05h0a3.56,3.56,0,0,0,2.27,3.35,15,15,0,0,0,6.38,1.1h0a12.42,12.42,0,0,0,6.65-1.52,4.81,4.81,0,0,0,2.4-4.28h0a4.23,4.23,0,0,0-1.1-2.92,9.16,9.16,0,0,0-2.75-2q-1.65-.83-4.65-2h0a52.12,52.12,0,0,1-6.28-2.85,13.07,13.07,0,0,1-4.15-3.67A9.44,9.44,0,0,1,179.83,84h0a11.05,11.05,0,0,1,1.92-6.4,12.5,12.5,0,0,1,5.55-4.35,21.65,21.65,0,0,1,8.53-1.55h0a20,20,0,0,1,6.7,1.08,10.73,10.73,0,0,1,4.87,3.27,8.17,8.17,0,0,1,1.83,5.4h0a9.52,9.52,0,0,1-.95,4.75,3.07,3.07,0,0,1-2.8,1.6h0a3.14,3.14,0,0,1-2.18-.8,2.5,2.5,0,0,1-.87-1.9h0a9.51,9.51,0,0,1,.15-1.75h0c.1-1,.15-1.63.15-1.9h0a3.47,3.47,0,0,0-2-3.2,10.75,10.75,0,0,0-5.1-1.1h0A11.52,11.52,0,0,0,189,78.73a5.08,5.08,0,0,0-2.27,4.42h0a4.79,4.79,0,0,0,1.17,3.25,9.77,9.77,0,0,0,2.93,2.25c1.16.6,2.8,1.32,4.9,2.15h0a64.2,64.2,0,0,1,6.1,2.8,12.14,12.14,0,0,1,3.92,3.4,8.49,8.49,0,0,1,1.63,5.3h0a10.46,10.46,0,0,1-4.48,9.08q-4.47,3.16-12,3.17ZM238.88,103a1.15,1.15,0,0,1,1,.6,3.1,3.1,0,0,1,.38,1.65h0a4.61,4.61,0,0,1-.95,3.1h0a26.26,26.26,0,0,1-4.73,4.35,9.4,9.4,0,0,1-5.52,1.7h0a4.86,4.86,0,0,1-3.85-1.47,6.28,6.28,0,0,1-1.3-4.28h0a30.87,30.87,0,0,1,.7-5h0a26.24,26.24,0,0,0,.65-4.35h0c0-.53-.19-.8-.55-.8h0c-.44,0-1,.56-1.85,1.68a24.39,24.39,0,0,0-2.4,4.42,35.92,35.92,0,0,0-1.95,5.8h0c-.64,2.67-2.2,4-4.7,4h0a2,2,0,0,1-2-1.07,11,11,0,0,1-.47-3.88h0c0-1.07,0-1.92.05-2.55h0l0-4a86.63,86.63,0,0,1,1.57-16.05,48.13,48.13,0,0,1,4.65-14q3.08-5.68,7.38-5.68h0a4.39,4.39,0,0,1,3.72,2,8.53,8.53,0,0,1,1.43,5.12h0a22,22,0,0,1-2.95,10.48,68.13,68.13,0,0,1-9.6,12.67h0c-.1,1.73-.15,3.52-.15,5.35h0a28.65,28.65,0,0,1,3.67-6.92,14.41,14.41,0,0,1,4-3.83,7.31,7.31,0,0,1,3.63-1.15h0c2.16,0,3.25,1.08,3.25,3.25h0a40.52,40.52,0,0,1-1.1,7.05h0a34,34,0,0,0-.95,5.75h0c0,1.33.48,2,1.45,2h0a3.92,3.92,0,0,0,2.37-1.22,41.45,41.45,0,0,0,3.68-4h0a1.74,1.74,0,0,1,1.35-.7ZM224,72.1c-.6,0-1.27.86-2,2.58a43.24,43.24,0,0,0-2.13,6.95,92.59,92.59,0,0,0-1.67,9.52h0a35.85,35.85,0,0,0,5.12-8,18.6,18.6,0,0,0,2-7.8h0A6.77,6.77,0,0,0,225,73c-.24-.57-.57-.85-1-.85Zm18.35,42.3a6.07,6.07,0,0,1-4.95-2.25,9,9,0,0,1-1.85-5.9h0a16.14,16.14,0,0,1,1.85-7.57,15.69,15.69,0,0,1,4.92-5.75,11.13,11.13,0,0,1,6.53-2.18h0a1.91,1.91,0,0,1,1.47.43A3.6,3.6,0,0,1,251,92.7h0a12,12,0,0,1,2.2-.2h0c1.63,0,2.45.58,2.45,1.75h0a37.44,37.44,0,0,1-.75,5h0a48.11,48.11,0,0,0-1.15,8h0a1.81,1.81,0,0,0,.37,1.2,1.22,1.22,0,0,0,1,.45h0a3.83,3.83,0,0,0,2.3-1.22,44.89,44.89,0,0,0,3.65-4h0a1.74,1.74,0,0,1,1.35-.7h0a1.15,1.15,0,0,1,1,.6,3.1,3.1,0,0,1,.38,1.65h0a4.61,4.61,0,0,1-.95,3.1h0a25.55,25.55,0,0,1-4.35,4.3A7.42,7.42,0,0,1,254,114.4h0a4.68,4.68,0,0,1-3-1.12,6.86,6.86,0,0,1-2.07-3.08h0q-2.61,4.2-6.55,4.2Zm1.8-5.05a2.74,2.74,0,0,0,2.1-1.3,8.56,8.56,0,0,0,1.45-3.45h0l1.85-9.2A6.05,6.05,0,0,0,245.7,97a10.54,10.54,0,0,0-2.82,4,13.55,13.55,0,0,0-1,5.3h0a3.59,3.59,0,0,0,.62,2.3,2.13,2.13,0,0,0,1.73.75Zm19.1,5.05a2.74,2.74,0,0,1-2.68-2,19.37,19.37,0,0,1-.77-6.4h0a40.53,40.53,0,0,1,1.85-12.35h0a3.75,3.75,0,0,1,1.47-2.12,5.22,5.22,0,0,1,2.88-.68h0a2.81,2.81,0,0,1,1.4.25,1,1,0,0,1,.4,1h0a19.16,19.16,0,0,1-.75,3.6h0c-.34,1.33-.6,2.5-.8,3.5a34.85,34.85,0,0,0-.5,3.7h0a28.26,28.26,0,0,1,3.7-7,14.55,14.55,0,0,1,4-3.85,7.31,7.31,0,0,1,3.63-1.15h0c2.16,0,3.25,1.08,3.25,3.25h0a25.29,25.29,0,0,1-.45,3.15h0a17.86,17.86,0,0,0-.4,2.5h0c0,1.17.41,1.75,1.25,1.75h0c.93,0,2.13-.73,3.6-2.2h0a1.91,1.91,0,0,1,1.35-.65h0a1.15,1.15,0,0,1,1,.58,2.74,2.74,0,0,1,.38,1.52h0a4.07,4.07,0,0,1-1,2.9h0a13.81,13.81,0,0,1-3.28,2.48,8.18,8.18,0,0,1-4,1h0a5.53,5.53,0,0,1-4-1.35,4.91,4.91,0,0,1-1.37-3.65h0a7.63,7.63,0,0,1,.15-1.5h0c.06-.67.1-1.12.1-1.35h0c0-.53-.19-.8-.55-.8h0q-.75,0-2,1.68a23.73,23.73,0,0,0-2.42,4.42,35.92,35.92,0,0,0-1.95,5.8h0a7.75,7.75,0,0,1-1.28,3.18,2.86,2.86,0,0,1-2.27.82Zm41.5-11.4a1.15,1.15,0,0,1,1,.6,3.1,3.1,0,0,1,.38,1.65h0a4.61,4.61,0,0,1-.95,3.1h0A18.45,18.45,0,0,1,300,112.5a14.46,14.46,0,0,1-7.22,1.9h0q-5.25,0-8.15-2.85a10.41,10.41,0,0,1-2.9-7.8h0a14.39,14.39,0,0,1,1.45-6.42,11.85,11.85,0,0,1,4-4.73A10.11,10.11,0,0,1,293,90.85h0a6.35,6.35,0,0,1,4.65,1.73,6.28,6.28,0,0,1,1.75,4.67h0a8.1,8.1,0,0,1-2.48,5.93q-2.47,2.47-8.37,3.92h0q1.25,2.3,4.75,2.3h0a10.88,10.88,0,0,0,5.12-1.57,16.92,16.92,0,0,0,5-4.13h0a1.74,1.74,0,0,1,1.35-.7Zm-12.6-7.25a3.67,3.67,0,0,0-3.13,2.15,10,10,0,0,0-1.27,5.2h0v.1a11.53,11.53,0,0,0,4.65-2.1,4.14,4.14,0,0,0,1.7-3.25h0a2.16,2.16,0,0,0-.53-1.52,1.8,1.8,0,0,0-1.42-.58Zm37.15,18.8q-6.66,0-10.65-2.52a8.51,8.51,0,0,1-4-7.73h0a7.64,7.64,0,0,1,.95-4.2,3.12,3.12,0,0,1,2.8-1.45h0a3.34,3.34,0,0,1,2.2.7,2.26,2.26,0,0,1,.85,1.8h0a9,9,0,0,1-.15,1.75h0a5.85,5.85,0,0,1-.08.7,7,7,0,0,0-.07,1.05h0a3.56,3.56,0,0,0,2.27,3.35,15,15,0,0,0,6.38,1.1h0a12.42,12.42,0,0,0,6.65-1.52,4.81,4.81,0,0,0,2.4-4.28h0a4.23,4.23,0,0,0-1.1-2.92,9.16,9.16,0,0,0-2.75-2q-1.65-.83-4.65-2h0a52.12,52.12,0,0,1-6.28-2.85A13.07,13.07,0,0,1,320,89.78,9.44,9.44,0,0,1,318.23,84h0a11.05,11.05,0,0,1,1.92-6.4,12.5,12.5,0,0,1,5.55-4.35,21.65,21.65,0,0,1,8.53-1.55h0a20,20,0,0,1,6.7,1.08,10.73,10.73,0,0,1,4.87,3.27,8.17,8.17,0,0,1,1.83,5.4h0a9.52,9.52,0,0,1-.95,4.75,3.07,3.07,0,0,1-2.8,1.6h0a3.14,3.14,0,0,1-2.18-.8,2.5,2.5,0,0,1-.87-1.9h0a9.51,9.51,0,0,1,.15-1.75h0c.1-1,.15-1.63.15-1.9h0a3.47,3.47,0,0,0-2.05-3.2,10.75,10.75,0,0,0-5.1-1.1h0a11.52,11.52,0,0,0-6.58,1.58,5.08,5.08,0,0,0-2.27,4.42h0a4.79,4.79,0,0,0,1.17,3.25,9.77,9.77,0,0,0,2.93,2.25c1.16.6,2.8,1.32,4.9,2.15h0a64.2,64.2,0,0,1,6.1,2.8,12.14,12.14,0,0,1,3.92,3.4,8.49,8.49,0,0,1,1.63,5.3h0a10.46,10.46,0,0,1-4.48,9.08q-4.47,3.16-12,3.17Zm43-11.55a1.15,1.15,0,0,1,1,.6,3.1,3.1,0,0,1,.38,1.65h0a4.61,4.61,0,0,1-1,3.1h0a18.45,18.45,0,0,1-5.23,4.15,14.46,14.46,0,0,1-7.22,1.9h0q-5.25,0-8.15-2.85a10.41,10.41,0,0,1-2.9-7.8h0a14.39,14.39,0,0,1,1.45-6.42,11.85,11.85,0,0,1,4-4.73,10.11,10.11,0,0,1,5.83-1.75h0a6.35,6.35,0,0,1,4.65,1.73A6.28,6.28,0,0,1,367,97.25h0a8.1,8.1,0,0,1-2.48,5.93q-2.47,2.47-8.37,3.92h0q1.25,2.3,4.75,2.3h0a10.88,10.88,0,0,0,5.12-1.57,16.92,16.92,0,0,0,5-4.13h0a1.74,1.74,0,0,1,1.35-.7Zm-12.6-7.25a3.67,3.67,0,0,0-3.13,2.15,10,10,0,0,0-1.27,5.2h0v.1a11.53,11.53,0,0,0,4.65-2.1,4.14,4.14,0,0,0,1.7-3.25h0a2.16,2.16,0,0,0-.53-1.52,1.8,1.8,0,0,0-1.42-.58Zm19.5,18.65q-4.91,0-7.63-2.77a10,10,0,0,1-2.72-7.33h0a15,15,0,0,1,1.6-7.1,12.16,12.16,0,0,1,4.15-4.7A9.69,9.69,0,0,1,380,90.85h0a5.54,5.54,0,0,1,4.27,1.63,5.83,5.83,0,0,1,1.53,4.17h0a6.45,6.45,0,0,1-.93,3.55,2.76,2.76,0,0,1-2.42,1.45h0a2.42,2.42,0,0,1-1.53-.45,1.51,1.51,0,0,1-.57-1.25h0a3.56,3.56,0,0,1,.1-.8c.06-.3.11-.52.15-.65h0a4.66,4.66,0,0,0,.25-1.4h0a1.4,1.4,0,0,0-.33-1,1.19,1.19,0,0,0-.92-.35h0a2.94,2.94,0,0,0-2.15,1,7.18,7.18,0,0,0-1.6,2.77,11.82,11.82,0,0,0-.6,3.85h0q0,5.8,5,5.8h0a9,9,0,0,0,4.42-1.37,18.2,18.2,0,0,0,4.68-4.13h0a1.74,1.74,0,0,1,1.35-.7h0a1.15,1.15,0,0,1,1,.6,3.1,3.1,0,0,1,.38,1.65h0a4.86,4.86,0,0,1-.95,3.1h0a16.26,16.26,0,0,1-5.63,4.48,14.54,14.54,0,0,1-6.32,1.57Zm13.95,0a4.31,4.31,0,0,1-3.68-2.07,9,9,0,0,1-1.42-5.18h0a42.78,42.78,0,0,1,.5-6.87,42.18,42.18,0,0,1,1.65-6.63h0a4.15,4.15,0,0,1,1.4-2.15,5,5,0,0,1,2.85-.65h0a2.47,2.47,0,0,1,1.52.35,1.26,1.26,0,0,1,.43,1h0a21.86,21.86,0,0,1-.55,2.7h0c-.34,1.23-.6,2.35-.8,3.35h0a46.77,46.77,0,0,0-1,7h0a3.12,3.12,0,0,0,.25,1.48.85.85,0,0,0,.8.42h0c.5,0,1.12-.5,1.87-1.5a22.13,22.13,0,0,0,2.4-4.55,60.36,60.36,0,0,0,2.48-7.5h0a3.88,3.88,0,0,1,1.22-2.15,4,4,0,0,1,2.48-.65h0a3.23,3.23,0,0,1,1.6.28,1.09,1.09,0,0,1,.45,1h0A49,49,0,0,1,406.38,99h0a54.48,54.48,0,0,0-1.4,7.9h0a2.39,2.39,0,0,0,.4,1.48,1.24,1.24,0,0,0,1.05.52h0a3.92,3.92,0,0,0,2.37-1.22,41.45,41.45,0,0,0,3.68-4h0a1.74,1.74,0,0,1,1.35-.7h0a1.15,1.15,0,0,1,1,.6,3.1,3.1,0,0,1,.38,1.65h0a4.61,4.61,0,0,1-1,3.1h0a22.14,22.14,0,0,1-4.63,4.35,9.71,9.71,0,0,1-5.62,1.7h0a3.84,3.84,0,0,1-3.53-1.85,10,10,0,0,1-1.12-5.2h0a11.8,11.8,0,0,1-2.55,5.23,5,5,0,0,1-3.65,1.82Zm21.55,0a2.74,2.74,0,0,1-2.68-2,19.37,19.37,0,0,1-.77-6.4h0a40.53,40.53,0,0,1,1.85-12.35h0a3.75,3.75,0,0,1,1.47-2.12,5.22,5.22,0,0,1,2.88-.68h0a2.81,2.81,0,0,1,1.4.25,1,1,0,0,1,.4,1h0a19.16,19.16,0,0,1-.75,3.6h0c-.34,1.33-.6,2.5-.8,3.5a34.85,34.85,0,0,0-.5,3.7h0a28.26,28.26,0,0,1,3.7-7A14.55,14.55,0,0,1,425,92a7.31,7.31,0,0,1,3.63-1.15h0c2.16,0,3.25,1.08,3.25,3.25h0a25.29,25.29,0,0,1-.45,3.15h0a17.86,17.86,0,0,0-.4,2.5h0c0,1.17.41,1.75,1.25,1.75h0c.93,0,2.13-.73,3.6-2.2h0a1.91,1.91,0,0,1,1.35-.65h0a1.15,1.15,0,0,1,1,.58,2.74,2.74,0,0,1,.38,1.52h0a4.07,4.07,0,0,1-1,2.9h0a13.81,13.81,0,0,1-3.28,2.48,8.18,8.18,0,0,1-4,1h0a5.53,5.53,0,0,1-4-1.35,4.91,4.91,0,0,1-1.37-3.65h0a7.63,7.63,0,0,1,.15-1.5h0c.06-.67.1-1.12.1-1.35h0c0-.53-.19-.8-.55-.8h0q-.75,0-2,1.68a23.73,23.73,0,0,0-2.42,4.42,35.92,35.92,0,0,0-2,5.8h0a7.75,7.75,0,0,1-1.28,3.18,2.86,2.86,0,0,1-2.27.82Zm41.5-11.4a1.15,1.15,0,0,1,1,.6,3.1,3.1,0,0,1,.38,1.65h0a4.61,4.61,0,0,1-.95,3.1h0a18.45,18.45,0,0,1-5.23,4.15,14.46,14.46,0,0,1-7.22,1.9h0q-5.25,0-8.15-2.85a10.41,10.41,0,0,1-2.9-7.8h0a14.39,14.39,0,0,1,1.45-6.42,11.85,11.85,0,0,1,4-4.73,10.11,10.11,0,0,1,5.83-1.75h0a6.35,6.35,0,0,1,4.65,1.73,6.28,6.28,0,0,1,1.75,4.67h0a8.1,8.1,0,0,1-2.48,5.93q-2.47,2.47-8.37,3.92h0q1.25,2.3,4.75,2.3h0a10.88,10.88,0,0,0,5.12-1.57,16.92,16.92,0,0,0,5-4.13h0a1.74,1.74,0,0,1,1.35-.7Zm-12.6-7.25a3.67,3.67,0,0,0-3.13,2.15,10,10,0,0,0-1.27,5.2h0v.1a11.53,11.53,0,0,0,4.65-2.1,4.14,4.14,0,0,0,1.7-3.25h0a2.16,2.16,0,0,0-.53-1.52,1.8,1.8,0,0,0-1.42-.58Zm28.9,7.25a1.15,1.15,0,0,1,1,.6,3.1,3.1,0,0,1,.38,1.65h0a4.61,4.61,0,0,1-.95,3.1h0a21.4,21.4,0,0,1-4.68,4.35,10,10,0,0,1-5.72,1.7h0a6.94,6.94,0,0,1-6.53-4,22.11,22.11,0,0,1-2.12-10.35h0a71,71,0,0,1,1.57-13.9,47.13,47.13,0,0,1,4.65-13.4q3.08-5.59,7.33-5.6h0a4.22,4.22,0,0,1,3.77,2.23,12.12,12.12,0,0,1,1.38,6.37h0q0,6-3.3,13.8a76.74,76.74,0,0,1-8.95,15.55h0a5.75,5.75,0,0,0,1.15,2.93,2.71,2.71,0,0,0,2.1.87h0a5.84,5.84,0,0,0,3.6-1.17,28,28,0,0,0,3.95-4h0a1.74,1.74,0,0,1,1.35-.7Zm-6.15-30.9q-1.15,0-2.6,4.15a67.51,67.51,0,0,0-2.55,10.3,73,73,0,0,0-1.2,11.8h0a65.05,65.05,0,0,0,5.65-11.72,32.2,32.2,0,0,0,2.1-10.73h0c0-2.53-.47-3.8-1.4-3.8Zm29.1,31a1.14,1.14,0,0,1,1,.63,3,3,0,0,1,.38,1.57h0a3.86,3.86,0,0,1-.35,1.8,3.32,3.32,0,0,1-1.1,1.15h0l-9.6,6.45q-1.9,10.35-5,16.28T473,136.9h0a5.65,5.65,0,0,1-4.15-1.57,5.53,5.53,0,0,1-1.6-4.13h0a12,12,0,0,1,1.07-4.8,21.74,21.74,0,0,1,4-5.62,65.57,65.57,0,0,1,8.28-7.28h0l.15-1.15q.35-1.84.8-5.3h0a12.76,12.76,0,0,1-2.8,5.48,5.26,5.26,0,0,1-3.8,1.87h0a4.31,4.31,0,0,1-3.68-2.07,9,9,0,0,1-1.42-5.18h0a42.78,42.78,0,0,1,.5-6.87A42.18,42.18,0,0,1,472,93.65h0a4.15,4.15,0,0,1,1.4-2.15,5,5,0,0,1,2.85-.65h0a2.47,2.47,0,0,1,1.52.35,1.26,1.26,0,0,1,.43,1h0a21.86,21.86,0,0,1-.55,2.7h0c-.34,1.23-.6,2.35-.8,3.35h0c-.27,1.37-.5,2.68-.7,3.93a20.19,20.19,0,0,0-.3,3.07h0c0,1.27.35,1.9,1.05,1.9h0c.5,0,1.12-.5,1.87-1.5a22.13,22.13,0,0,0,2.4-4.55,60.36,60.36,0,0,0,2.48-7.5h0a3.88,3.88,0,0,1,1.22-2.15,4,4,0,0,1,2.48-.65h0a3.08,3.08,0,0,1,1.6.3,1.11,1.11,0,0,1,.45,1h0c0,.83-.44,3.7-1.3,8.6h0l-1.3,8q3.84-2.89,7.5-5.3h0a2.21,2.21,0,0,1,1.15-.4Zm-21.9,29c.83,0,1.76-1,2.8-2.9a42.81,42.81,0,0,0,3.1-9.65h0a28.33,28.33,0,0,0-5.58,5.93,9,9,0,0,0-1.72,4.67h0a2.79,2.79,0,0,0,.32,1.4,1.16,1.16,0,0,0,1.08.55Z" class="g" transform="translate(0 0.65)"/><polygon points="333 48.95 333 48.95 333 48.95 333 48.95"/></svg>