<svg xmlns="http://www.w3.org/2000/svg" xmlns:xlink="http://www.w3.org/1999/xlink" viewBox="0 0 172.5 136.23"><defs><style>.a{fill:none}.b{fill:url(#a)}.c{fill:url(#b)}.d{fill:url(#c)}.e{fill:url(#d)}.f{fill:url(#e)}</style><linearGradient id="a" x1="-431.13" x2="-430.13" y1="-138.91" y2="-138.91" gradientTransform="matrix(119.13, 0, 0, -119.14, 51391.25, -16489.71)" gradientUnits="userSpaceOnUse"><stop offset="0" stop-color="#3d90e3"/><stop offset="1" stop-color="#3d90e3"/></linearGradient><linearGradient id="b" x1="-431.13" x2="-430.13" y1="-138.91" y2="-138.91" gradientTransform="matrix(83.39, 0, 0, -89.35, 36018.33, -12366.54)" xlink:href="#a"/><linearGradient id="c" x1="-431.13" x2="-430.13" y1="-138.91" y2="-138.91" gradientTransform="matrix(23.83, 0, 0, -29.78, 10350.04, -4031.79)" xlink:href="#a"/><linearGradient id="d" x1="-431.13" x2="-430.13" y1="-138.91" y2="-138.91" gradientTransform="matrix(36.92, 0, 0, -16.6, 15915.86, -2177.9)" xlink:href="#a"/><linearGradient id="e" x1="-431.13" x2="-430.13" y1="-138.91" y2="-138.91" gradientTransform="matrix(11.29, 0, 0, -8.66, 4919.92, -1075.74)" xlink:href="#a"/></defs><title>share_securely_logo</title><rect width="172.75" height="172.75" x="-.5" y="-29.78" class="a"/><path d="M79.91,119.13a3,3,0,0,1-2.83-2L65.64,82.76,31.32,71.32a3,3,0,0,1-.56-5.4L143.94.4a3,3,0,0,1,4.43,3.1L130.5,104.76a3,3,0,0,1-4.11,2.22L88.06,90.56l-5.23,26.19a3,3,0,0,1-2.74,2.39A.53.53,0,0,0,79.91,119.13ZM39.47,67.76l29.47,9.82a3,3,0,0,1,1.88,1.88l8.37,25.11,3.75-18.79a3,3,0,0,1,1.54-2,3,3,0,0,1,2.56-.1L125.29,100l16.1-91.26Z" class="b"/><rect width="137.01" height="148.92" x="35.37" y="-28.87" class="a"/><path d="M86,90.27a3,3,0,0,1-2.42-4.71l38.65-54.11-52,52A3,3,0,1,1,66,79.23L143.46,1.79A3,3,0,0,1,148,5.63L88.43,89A3,3,0,0,1,86,90.27Z" class="c"/><rect width="77.44" height="89.35" x="48.15" y="60.91" class="a"/><path d="M80.92,120.48a3,3,0,0,1-2.39-4.76L96.4,91.89a3,3,0,0,1,4.77,3.57L83.3,119.29A3,3,0,0,1,80.92,120.48Z" class="d"/><path d="M32.45,136.23a42.72,42.72,0,0,1-8.57-.89,3,3,0,1,1,1.2-5.83,37.34,37.34,0,0,0,7.37.76h0l1.34,0a2.78,2.78,0,0,1,3.09,2.86A3,3,0,0,1,34,136.2l-1.55,0Zm-21.35-5.7a3.07,3.07,0,0,1-1.37-.33,80,80,0,0,1-8.45-5.14,3,3,0,0,1,3.4-4.89,70.13,70.13,0,0,0,7.8,4.74,3,3,0,0,1-1.38,5.62Z" class="e"/><rect width="65.52" height="65.52" x="21.11" y="92.83" class="a"/><path d="M53.87,131.27a3,3,0,0,1-1.17-5.72,42.58,42.58,0,0,0,5-2.53,3,3,0,0,1,3,5.14A51.18,51.18,0,0,1,55,131,3,3,0,0,1,53.87,131.27Z" class="f"/></svg>